%TF.GenerationSoftware,KiCad,Pcbnew,(5.1.8)-1*%
%TF.CreationDate,2020-12-25T19:20:46-06:00*%
%TF.ProjectId,Reaction Time Game,52656163-7469-46f6-9e20-54696d652047,rev?*%
%TF.SameCoordinates,Original*%
%TF.FileFunction,Legend,Top*%
%TF.FilePolarity,Positive*%
%FSLAX46Y46*%
G04 Gerber Fmt 4.6, Leading zero omitted, Abs format (unit mm)*
G04 Created by KiCad (PCBNEW (5.1.8)-1) date 2020-12-25 19:20:46*
%MOMM*%
%LPD*%
G01*
G04 APERTURE LIST*
%ADD10C,0.150000*%
%ADD11C,0.200000*%
%ADD12C,0.120000*%
%TA.AperFunction,Profile*%
%ADD13C,0.254000*%
%TD*%
G04 APERTURE END LIST*
D10*
X119904761Y-108190476D02*
X119952380Y-108047619D01*
X119952380Y-107809523D01*
X119904761Y-107714285D01*
X119857142Y-107666666D01*
X119761904Y-107619047D01*
X119666666Y-107619047D01*
X119571428Y-107666666D01*
X119523809Y-107714285D01*
X119476190Y-107809523D01*
X119428571Y-108000000D01*
X119380952Y-108095238D01*
X119333333Y-108142857D01*
X119238095Y-108190476D01*
X119142857Y-108190476D01*
X119047619Y-108142857D01*
X119000000Y-108095238D01*
X118952380Y-108000000D01*
X118952380Y-107761904D01*
X119000000Y-107619047D01*
X119952380Y-107190476D02*
X118952380Y-107190476D01*
X118952380Y-106809523D01*
X119000000Y-106714285D01*
X119047619Y-106666666D01*
X119142857Y-106619047D01*
X119285714Y-106619047D01*
X119380952Y-106666666D01*
X119428571Y-106714285D01*
X119476190Y-106809523D01*
X119476190Y-107190476D01*
X119428571Y-106190476D02*
X119428571Y-105857142D01*
X119952380Y-105714285D02*
X119952380Y-106190476D01*
X118952380Y-106190476D01*
X118952380Y-105714285D01*
X119428571Y-105285714D02*
X119428571Y-104952380D01*
X119952380Y-104809523D02*
X119952380Y-105285714D01*
X118952380Y-105285714D01*
X118952380Y-104809523D01*
X119952380Y-104380952D02*
X118952380Y-104380952D01*
X118952380Y-104142857D01*
X119000000Y-104000000D01*
X119095238Y-103904761D01*
X119190476Y-103857142D01*
X119380952Y-103809523D01*
X119523809Y-103809523D01*
X119714285Y-103857142D01*
X119809523Y-103904761D01*
X119904761Y-104000000D01*
X119952380Y-104142857D01*
X119952380Y-104380952D01*
D11*
X115761904Y-78857142D02*
X114238095Y-78857142D01*
X84238095Y-79142857D02*
X85761904Y-79142857D01*
X85000000Y-79904761D02*
X85000000Y-78380952D01*
D10*
X95853304Y-112949523D02*
X95853304Y-112454285D01*
X96158066Y-112720952D01*
X96158066Y-112606666D01*
X96196161Y-112530476D01*
X96234257Y-112492380D01*
X96310447Y-112454285D01*
X96500923Y-112454285D01*
X96577114Y-112492380D01*
X96615209Y-112530476D01*
X96653304Y-112606666D01*
X96653304Y-112835238D01*
X96615209Y-112911428D01*
X96577114Y-112949523D01*
X96653304Y-112073333D02*
X96653304Y-111920952D01*
X96615209Y-111844761D01*
X96577114Y-111806666D01*
X96462828Y-111730476D01*
X96310447Y-111692380D01*
X96005685Y-111692380D01*
X95929495Y-111730476D01*
X95891400Y-111768571D01*
X95853304Y-111844761D01*
X95853304Y-111997142D01*
X95891400Y-112073333D01*
X95929495Y-112111428D01*
X96005685Y-112149523D01*
X96196161Y-112149523D01*
X96272352Y-112111428D01*
X96310447Y-112073333D01*
X96348542Y-111997142D01*
X96348542Y-111844761D01*
X96310447Y-111768571D01*
X96272352Y-111730476D01*
X96196161Y-111692380D01*
X95853304Y-111197142D02*
X95853304Y-111120952D01*
X95891400Y-111044761D01*
X95929495Y-111006666D01*
X96005685Y-110968571D01*
X96158066Y-110930476D01*
X96348542Y-110930476D01*
X96500923Y-110968571D01*
X96577114Y-111006666D01*
X96615209Y-111044761D01*
X96653304Y-111120952D01*
X96653304Y-111197142D01*
X96615209Y-111273333D01*
X96577114Y-111311428D01*
X96500923Y-111349523D01*
X96348542Y-111387619D01*
X96158066Y-111387619D01*
X96005685Y-111349523D01*
X95929495Y-111311428D01*
X95891400Y-111273333D01*
X95853304Y-111197142D01*
X95853304Y-110244761D02*
X95853304Y-110397142D01*
X95891400Y-110473333D01*
X95929495Y-110511428D01*
X96043780Y-110587619D01*
X96196161Y-110625714D01*
X96500923Y-110625714D01*
X96577114Y-110587619D01*
X96615209Y-110549523D01*
X96653304Y-110473333D01*
X96653304Y-110320952D01*
X96615209Y-110244761D01*
X96577114Y-110206666D01*
X96500923Y-110168571D01*
X96310447Y-110168571D01*
X96234257Y-110206666D01*
X96196161Y-110244761D01*
X96158066Y-110320952D01*
X96158066Y-110473333D01*
X96196161Y-110549523D01*
X96234257Y-110587619D01*
X96310447Y-110625714D01*
X108811904Y-112949523D02*
X108811904Y-112454285D01*
X109116666Y-112720952D01*
X109116666Y-112606666D01*
X109154761Y-112530476D01*
X109192857Y-112492380D01*
X109269047Y-112454285D01*
X109459523Y-112454285D01*
X109535714Y-112492380D01*
X109573809Y-112530476D01*
X109611904Y-112606666D01*
X109611904Y-112835238D01*
X109573809Y-112911428D01*
X109535714Y-112949523D01*
X109611904Y-112073333D02*
X109611904Y-111920952D01*
X109573809Y-111844761D01*
X109535714Y-111806666D01*
X109421428Y-111730476D01*
X109269047Y-111692380D01*
X108964285Y-111692380D01*
X108888095Y-111730476D01*
X108850000Y-111768571D01*
X108811904Y-111844761D01*
X108811904Y-111997142D01*
X108850000Y-112073333D01*
X108888095Y-112111428D01*
X108964285Y-112149523D01*
X109154761Y-112149523D01*
X109230952Y-112111428D01*
X109269047Y-112073333D01*
X109307142Y-111997142D01*
X109307142Y-111844761D01*
X109269047Y-111768571D01*
X109230952Y-111730476D01*
X109154761Y-111692380D01*
X108811904Y-111197142D02*
X108811904Y-111120952D01*
X108850000Y-111044761D01*
X108888095Y-111006666D01*
X108964285Y-110968571D01*
X109116666Y-110930476D01*
X109307142Y-110930476D01*
X109459523Y-110968571D01*
X109535714Y-111006666D01*
X109573809Y-111044761D01*
X109611904Y-111120952D01*
X109611904Y-111197142D01*
X109573809Y-111273333D01*
X109535714Y-111311428D01*
X109459523Y-111349523D01*
X109307142Y-111387619D01*
X109116666Y-111387619D01*
X108964285Y-111349523D01*
X108888095Y-111311428D01*
X108850000Y-111273333D01*
X108811904Y-111197142D01*
X109078571Y-110244761D02*
X109611904Y-110244761D01*
X108773809Y-110435238D02*
X109345238Y-110625714D01*
X109345238Y-110130476D01*
X95380952Y-83377380D02*
X95380952Y-82377380D01*
X95619047Y-82377380D01*
X95761904Y-82425000D01*
X95857142Y-82520238D01*
X95904761Y-82615476D01*
X95952380Y-82805952D01*
X95952380Y-82948809D01*
X95904761Y-83139285D01*
X95857142Y-83234523D01*
X95761904Y-83329761D01*
X95619047Y-83377380D01*
X95380952Y-83377380D01*
X96761904Y-83329761D02*
X96666666Y-83377380D01*
X96476190Y-83377380D01*
X96380952Y-83329761D01*
X96333333Y-83234523D01*
X96333333Y-82853571D01*
X96380952Y-82758333D01*
X96476190Y-82710714D01*
X96666666Y-82710714D01*
X96761904Y-82758333D01*
X96809523Y-82853571D01*
X96809523Y-82948809D01*
X96333333Y-83044047D01*
X97190476Y-83329761D02*
X97285714Y-83377380D01*
X97476190Y-83377380D01*
X97571428Y-83329761D01*
X97619047Y-83234523D01*
X97619047Y-83186904D01*
X97571428Y-83091666D01*
X97476190Y-83044047D01*
X97333333Y-83044047D01*
X97238095Y-82996428D01*
X97190476Y-82901190D01*
X97190476Y-82853571D01*
X97238095Y-82758333D01*
X97333333Y-82710714D01*
X97476190Y-82710714D01*
X97571428Y-82758333D01*
X98047619Y-83377380D02*
X98047619Y-82710714D01*
X98047619Y-82377380D02*
X98000000Y-82425000D01*
X98047619Y-82472619D01*
X98095238Y-82425000D01*
X98047619Y-82377380D01*
X98047619Y-82472619D01*
X98952380Y-82710714D02*
X98952380Y-83520238D01*
X98904761Y-83615476D01*
X98857142Y-83663095D01*
X98761904Y-83710714D01*
X98619047Y-83710714D01*
X98523809Y-83663095D01*
X98952380Y-83329761D02*
X98857142Y-83377380D01*
X98666666Y-83377380D01*
X98571428Y-83329761D01*
X98523809Y-83282142D01*
X98476190Y-83186904D01*
X98476190Y-82901190D01*
X98523809Y-82805952D01*
X98571428Y-82758333D01*
X98666666Y-82710714D01*
X98857142Y-82710714D01*
X98952380Y-82758333D01*
X99428571Y-82710714D02*
X99428571Y-83377380D01*
X99428571Y-82805952D02*
X99476190Y-82758333D01*
X99571428Y-82710714D01*
X99714285Y-82710714D01*
X99809523Y-82758333D01*
X99857142Y-82853571D01*
X99857142Y-83377380D01*
X100714285Y-83329761D02*
X100619047Y-83377380D01*
X100428571Y-83377380D01*
X100333333Y-83329761D01*
X100285714Y-83234523D01*
X100285714Y-82853571D01*
X100333333Y-82758333D01*
X100428571Y-82710714D01*
X100619047Y-82710714D01*
X100714285Y-82758333D01*
X100761904Y-82853571D01*
X100761904Y-82948809D01*
X100285714Y-83044047D01*
X101619047Y-83377380D02*
X101619047Y-82377380D01*
X101619047Y-83329761D02*
X101523809Y-83377380D01*
X101333333Y-83377380D01*
X101238095Y-83329761D01*
X101190476Y-83282142D01*
X101142857Y-83186904D01*
X101142857Y-82901190D01*
X101190476Y-82805952D01*
X101238095Y-82758333D01*
X101333333Y-82710714D01*
X101523809Y-82710714D01*
X101619047Y-82758333D01*
X103190476Y-82853571D02*
X103333333Y-82901190D01*
X103380952Y-82948809D01*
X103428571Y-83044047D01*
X103428571Y-83186904D01*
X103380952Y-83282142D01*
X103333333Y-83329761D01*
X103238095Y-83377380D01*
X102857142Y-83377380D01*
X102857142Y-82377380D01*
X103190476Y-82377380D01*
X103285714Y-82425000D01*
X103333333Y-82472619D01*
X103380952Y-82567857D01*
X103380952Y-82663095D01*
X103333333Y-82758333D01*
X103285714Y-82805952D01*
X103190476Y-82853571D01*
X102857142Y-82853571D01*
X103761904Y-82710714D02*
X104000000Y-83377380D01*
X104238095Y-82710714D02*
X104000000Y-83377380D01*
X103904761Y-83615476D01*
X103857142Y-83663095D01*
X103761904Y-83710714D01*
X104619047Y-83282142D02*
X104666666Y-83329761D01*
X104619047Y-83377380D01*
X104571428Y-83329761D01*
X104619047Y-83282142D01*
X104619047Y-83377380D01*
X104619047Y-82758333D02*
X104666666Y-82805952D01*
X104619047Y-82853571D01*
X104571428Y-82805952D01*
X104619047Y-82758333D01*
X104619047Y-82853571D01*
X94571428Y-85027380D02*
X94571428Y-84027380D01*
X94904761Y-84741666D01*
X95238095Y-84027380D01*
X95238095Y-85027380D01*
X95714285Y-85027380D02*
X95714285Y-84360714D01*
X95714285Y-84027380D02*
X95666666Y-84075000D01*
X95714285Y-84122619D01*
X95761904Y-84075000D01*
X95714285Y-84027380D01*
X95714285Y-84122619D01*
X96190476Y-85027380D02*
X96190476Y-84027380D01*
X96285714Y-84646428D02*
X96571428Y-85027380D01*
X96571428Y-84360714D02*
X96190476Y-84741666D01*
X97380952Y-84979761D02*
X97285714Y-85027380D01*
X97095238Y-85027380D01*
X97000000Y-84979761D01*
X96952380Y-84884523D01*
X96952380Y-84503571D01*
X97000000Y-84408333D01*
X97095238Y-84360714D01*
X97285714Y-84360714D01*
X97380952Y-84408333D01*
X97428571Y-84503571D01*
X97428571Y-84598809D01*
X96952380Y-84694047D01*
X98619047Y-85027380D02*
X98619047Y-84027380D01*
X99190476Y-85027380D02*
X98761904Y-84455952D01*
X99190476Y-84027380D02*
X98619047Y-84598809D01*
X100047619Y-84360714D02*
X100047619Y-85027380D01*
X99619047Y-84360714D02*
X99619047Y-84884523D01*
X99666666Y-84979761D01*
X99761904Y-85027380D01*
X99904761Y-85027380D01*
X100000000Y-84979761D01*
X100047619Y-84932142D01*
X100476190Y-84979761D02*
X100571428Y-85027380D01*
X100761904Y-85027380D01*
X100857142Y-84979761D01*
X100904761Y-84884523D01*
X100904761Y-84836904D01*
X100857142Y-84741666D01*
X100761904Y-84694047D01*
X100619047Y-84694047D01*
X100523809Y-84646428D01*
X100476190Y-84551190D01*
X100476190Y-84503571D01*
X100523809Y-84408333D01*
X100619047Y-84360714D01*
X100761904Y-84360714D01*
X100857142Y-84408333D01*
X101333333Y-85027380D02*
X101333333Y-84027380D01*
X101761904Y-85027380D02*
X101761904Y-84503571D01*
X101714285Y-84408333D01*
X101619047Y-84360714D01*
X101476190Y-84360714D01*
X101380952Y-84408333D01*
X101333333Y-84455952D01*
X102238095Y-84360714D02*
X102238095Y-85027380D01*
X102238095Y-84455952D02*
X102285714Y-84408333D01*
X102380952Y-84360714D01*
X102523809Y-84360714D01*
X102619047Y-84408333D01*
X102666666Y-84503571D01*
X102666666Y-85027380D01*
X103523809Y-84979761D02*
X103428571Y-85027380D01*
X103238095Y-85027380D01*
X103142857Y-84979761D01*
X103095238Y-84884523D01*
X103095238Y-84503571D01*
X103142857Y-84408333D01*
X103238095Y-84360714D01*
X103428571Y-84360714D01*
X103523809Y-84408333D01*
X103571428Y-84503571D01*
X103571428Y-84598809D01*
X103095238Y-84694047D01*
X104000000Y-85027380D02*
X104000000Y-84360714D01*
X104000000Y-84551190D02*
X104047619Y-84455952D01*
X104095238Y-84408333D01*
X104190476Y-84360714D01*
X104285714Y-84360714D01*
X104619047Y-85027380D02*
X104619047Y-84360714D01*
X104619047Y-84027380D02*
X104571428Y-84075000D01*
X104619047Y-84122619D01*
X104666666Y-84075000D01*
X104619047Y-84027380D01*
X104619047Y-84122619D01*
X105095238Y-85027380D02*
X105095238Y-84027380D01*
X105190476Y-84646428D02*
X105476190Y-85027380D01*
X105476190Y-84360714D02*
X105095238Y-84741666D01*
D12*
X105750000Y-78000000D02*
X101000000Y-78000000D01*
X105750000Y-81000000D02*
X101000000Y-81000000D01*
X105750000Y-81000000D02*
X105750000Y-82000000D01*
X105750000Y-78000000D02*
X105750000Y-77000000D01*
X105750000Y-77000000D02*
X108250000Y-79500000D01*
X105750000Y-82000000D02*
X108250000Y-79500000D01*
X101000000Y-81000000D02*
X101000000Y-78000000D01*
D13*
X122500000Y-73500000D02*
X122500000Y-126500000D01*
X77500000Y-126500000D02*
X77500000Y-73500000D01*
X81000000Y-130000000D02*
X119000000Y-130000000D01*
X81000000Y-70000000D02*
X119000000Y-70000000D01*
D12*
X99000000Y-78000000D02*
X99000000Y-81000000D01*
X94250000Y-77000000D02*
X91750000Y-79500000D01*
X94250000Y-82000000D02*
X91750000Y-79500000D01*
X94250000Y-81000000D02*
X94250000Y-82000000D01*
X94250000Y-78000000D02*
X94250000Y-77000000D01*
X94250000Y-81000000D02*
X99000000Y-81000000D01*
X94250000Y-78000000D02*
X99000000Y-78000000D01*
D11*
X101750000Y-78678571D02*
X102607142Y-78678571D01*
X102178571Y-80178571D02*
X102178571Y-78678571D01*
X103035714Y-79750000D02*
X103750000Y-79750000D01*
X102892857Y-80178571D02*
X103392857Y-78678571D01*
X103892857Y-80178571D01*
X104392857Y-80178571D02*
X104392857Y-78678571D01*
X105250000Y-80178571D02*
X104607142Y-79321428D01*
X105250000Y-78678571D02*
X104392857Y-79535714D01*
X105892857Y-79392857D02*
X106392857Y-79392857D01*
X106607142Y-80178571D02*
X105892857Y-80178571D01*
X105892857Y-78678571D01*
X106607142Y-78678571D01*
D10*
X99714285Y-79952380D02*
X99714285Y-78952380D01*
X100285714Y-79952380D01*
X100285714Y-78952380D01*
D11*
X94714285Y-78750000D02*
X94571428Y-78678571D01*
X94357142Y-78678571D01*
X94142857Y-78750000D01*
X94000000Y-78892857D01*
X93928571Y-79035714D01*
X93857142Y-79321428D01*
X93857142Y-79535714D01*
X93928571Y-79821428D01*
X94000000Y-79964285D01*
X94142857Y-80107142D01*
X94357142Y-80178571D01*
X94500000Y-80178571D01*
X94714285Y-80107142D01*
X94785714Y-80035714D01*
X94785714Y-79535714D01*
X94500000Y-79535714D01*
X95428571Y-80178571D02*
X95428571Y-78678571D01*
X95928571Y-78678571D02*
X96428571Y-80178571D01*
X96928571Y-78678571D01*
X97428571Y-79392857D02*
X97928571Y-79392857D01*
X98142857Y-80178571D02*
X97428571Y-80178571D01*
X97428571Y-78678571D01*
X98142857Y-78678571D01*
D13*
X122500000Y-126500000D02*
G75*
G02*
X119000000Y-130000000I-3500000J0D01*
G01*
X81000000Y-130000000D02*
G75*
G02*
X77500000Y-126500000I0J3500000D01*
G01*
X119000000Y-70000000D02*
G75*
G02*
X122500000Y-73500000I0J-3500000D01*
G01*
X77500000Y-73500000D02*
G75*
G02*
X81000000Y-70000000I3500000J0D01*
G01*
D12*
X118000000Y-77000000D02*
G75*
G02*
X118000000Y-81000000I0J-2000000D01*
G01*
X109000000Y-77000000D02*
X109000000Y-81000000D01*
X118000000Y-81000000D02*
X109000000Y-81000000D01*
X118000000Y-77000000D02*
X109000000Y-77000000D01*
X82000000Y-81000000D02*
G75*
G02*
X82000000Y-77000000I0J2000000D01*
G01*
X89000000Y-77000000D02*
G75*
G02*
X89000000Y-81000000I0J-2000000D01*
G01*
X82000000Y-81000000D02*
X89000000Y-81000000D01*
X82000000Y-77000000D02*
X89000000Y-77000000D01*
D10*
X106000000Y-71200000D02*
X103700000Y-71200000D01*
X112300000Y-75800000D02*
X103700000Y-75800000D01*
X112300000Y-71200000D02*
X110100000Y-71200000D01*
D12*
X103034501Y-101271600D02*
G75*
G02*
X103034501Y-100613600I0J329000D01*
G01*
X103034501Y-100613601D02*
G75*
G02*
X103034501Y-101271599I0J-328999D01*
G01*
X97905726Y-92432722D02*
G75*
G02*
X98669648Y-91725047I815980J-114678D01*
G01*
X102330846Y-91771251D02*
G75*
G02*
X102870116Y-92662078I-276711J-776149D01*
G01*
X97404268Y-100728749D02*
G75*
G02*
X96864998Y-99837922I276711J776149D01*
G01*
X101829389Y-100067278D02*
G75*
G02*
X101065466Y-100774953I-815980J114678D01*
G01*
X93575000Y-105850000D02*
X106425000Y-105850000D01*
X106425000Y-105850000D02*
X106425000Y-86650000D01*
X93575000Y-105850000D02*
X93575000Y-86650000D01*
X93575000Y-86650000D02*
X106425000Y-86650000D01*
X101829390Y-100067277D02*
X102328627Y-96515000D01*
X102328627Y-96515000D02*
X102116789Y-96515000D01*
X102116789Y-96515000D02*
X101590146Y-97041643D01*
X101590146Y-97041643D02*
X101065466Y-100774953D01*
X98025227Y-100118600D02*
X97932751Y-100776600D01*
X97932751Y-100776600D02*
X100530027Y-100776600D01*
X100530027Y-100776600D02*
X100622502Y-100118600D01*
X100622502Y-100118600D02*
X98025227Y-100118600D01*
X97404268Y-100728748D02*
X97949872Y-96846546D01*
X97949872Y-96846546D02*
X97618326Y-96515000D01*
X97618326Y-96515000D02*
X97332001Y-96515000D01*
X97332001Y-96515000D02*
X96864998Y-99837922D01*
X101303256Y-96579000D02*
X101632256Y-96250000D01*
X101632256Y-96250000D02*
X101303255Y-95921000D01*
X101303255Y-95921000D02*
X98431858Y-95921000D01*
X98431858Y-95921000D02*
X98102859Y-96250000D01*
X98102859Y-96250000D02*
X98431859Y-96579000D01*
X98431859Y-96579000D02*
X101303256Y-96579000D01*
X102403113Y-95985000D02*
X102870116Y-92662078D01*
X102330846Y-91771252D02*
X101785242Y-95653454D01*
X101785242Y-95653454D02*
X102116789Y-95985000D01*
X102116789Y-95985000D02*
X102403113Y-95985000D01*
X101709888Y-92381400D02*
X101802363Y-91723400D01*
X101802363Y-91723400D02*
X99205088Y-91723400D01*
X99205088Y-91723400D02*
X99112612Y-92381400D01*
X99112612Y-92381400D02*
X101709888Y-92381400D01*
X97905725Y-92432723D02*
X97406488Y-95985000D01*
X97406488Y-95985000D02*
X97618326Y-95985000D01*
X97618326Y-95985000D02*
X98144969Y-95458357D01*
X98144969Y-95458357D02*
X98669648Y-91725047D01*
X107622795Y-109215816D02*
G75*
G02*
X108350000Y-109740000I-1122795J-2324184D01*
G01*
X105401193Y-109183600D02*
G75*
G03*
X103900000Y-111540000I1098807J-2356400D01*
G01*
X105401193Y-113896400D02*
G75*
G02*
X103900000Y-111540000I1098807J2356400D01*
G01*
X107622795Y-113864184D02*
G75*
G03*
X108350000Y-113340000I-1122795J2324184D01*
G01*
X108350000Y-113340000D02*
X108350000Y-109740000D01*
X94622795Y-109215816D02*
G75*
G02*
X95350000Y-109740000I-1122795J-2324184D01*
G01*
X92401193Y-109183600D02*
G75*
G03*
X90900000Y-111540000I1098807J-2356400D01*
G01*
X92401193Y-113896400D02*
G75*
G02*
X90900000Y-111540000I1098807J2356400D01*
G01*
X94622795Y-113864184D02*
G75*
G03*
X95350000Y-113340000I-1122795J2324184D01*
G01*
X95350000Y-113340000D02*
X95350000Y-109740000D01*
X118160000Y-102790000D02*
X118160000Y-104210000D01*
X117960000Y-104210000D02*
X117960000Y-107790000D01*
X117960000Y-107790000D02*
X118160000Y-107790000D01*
X118160000Y-107790000D02*
X118160000Y-109210000D01*
X118160000Y-109210000D02*
X117960000Y-109210000D01*
X110940000Y-105490000D02*
X110940000Y-104000000D01*
X112250000Y-102690000D02*
X115790000Y-102690000D01*
X116230000Y-109310000D02*
X112250000Y-109310000D01*
X110940000Y-108000000D02*
X110940000Y-106510000D01*
X117960000Y-104210000D02*
X118160000Y-104210000D01*
X118160000Y-102790000D02*
X117960000Y-102790000D01*
X117960000Y-102790000D02*
X117960000Y-102690000D01*
X117960000Y-102690000D02*
X117710000Y-102690000D01*
X117960000Y-109210000D02*
X117960000Y-109310000D01*
X117960000Y-109310000D02*
X117270000Y-109310000D01*
X110940000Y-104000000D02*
G75*
G02*
X112250000Y-102690000I1310000J0D01*
G01*
X112250000Y-109310000D02*
G75*
G02*
X110940000Y-108000000I0J1310000D01*
G01*
X109500000Y-125000000D02*
X109500000Y-123500000D01*
X108250000Y-121000000D02*
X103750000Y-121000000D01*
X102500000Y-123500000D02*
X102500000Y-125000000D01*
X103750000Y-127500000D02*
X108250000Y-127500000D01*
X112330000Y-113420000D02*
X116170000Y-113420000D01*
X112330000Y-111580000D02*
X116170000Y-111580000D01*
X100705000Y-109620000D02*
X100705000Y-113460000D01*
X102545000Y-109620000D02*
X102545000Y-113460000D01*
X99295000Y-113460000D02*
X99295000Y-109620000D01*
X97455000Y-113460000D02*
X97455000Y-109620000D01*
X87670000Y-111580000D02*
X83830000Y-111580000D01*
X87670000Y-113420000D02*
X83830000Y-113420000D01*
X113955000Y-121290000D02*
X117045000Y-121290000D01*
X118000000Y-118730000D02*
G75*
G03*
X118000000Y-118730000I-2500000J0D01*
G01*
X115499538Y-115740000D02*
G75*
G02*
X117044830Y-121290000I462J-2990000D01*
G01*
X115500462Y-115740000D02*
G75*
G03*
X113955170Y-121290000I-462J-2990000D01*
G01*
X82955000Y-121290000D02*
X86045000Y-121290000D01*
X87000000Y-118730000D02*
G75*
G03*
X87000000Y-118730000I-2500000J0D01*
G01*
X84499538Y-115740000D02*
G75*
G02*
X86044830Y-121290000I462J-2990000D01*
G01*
X84500462Y-115740000D02*
G75*
G03*
X82955170Y-121290000I-462J-2990000D01*
G01*
X96270000Y-119055000D02*
X96270000Y-119070000D01*
X96270000Y-116930000D02*
X96270000Y-116945000D01*
X91730000Y-119055000D02*
X91730000Y-119070000D01*
X91730000Y-116930000D02*
X91730000Y-116945000D01*
X91730000Y-119070000D02*
X96270000Y-119070000D01*
X91730000Y-116930000D02*
X96270000Y-116930000D01*
X108270000Y-119055000D02*
X108270000Y-119070000D01*
X108270000Y-116930000D02*
X108270000Y-116945000D01*
X103730000Y-119055000D02*
X103730000Y-119070000D01*
X103730000Y-116930000D02*
X103730000Y-116945000D01*
X103730000Y-119070000D02*
X108270000Y-119070000D01*
X103730000Y-116930000D02*
X108270000Y-116930000D01*
X88020000Y-110055000D02*
X88020000Y-110070000D01*
X88020000Y-107930000D02*
X88020000Y-107945000D01*
X83480000Y-110055000D02*
X83480000Y-110070000D01*
X83480000Y-107930000D02*
X83480000Y-107945000D01*
X83480000Y-110070000D02*
X88020000Y-110070000D01*
X83480000Y-107930000D02*
X88020000Y-107930000D01*
X88400000Y-86170000D02*
X86750000Y-86170000D01*
X88400000Y-106610000D02*
X88400000Y-86170000D01*
X83100000Y-106610000D02*
X88400000Y-106610000D01*
X83100000Y-86170000D02*
X83100000Y-106610000D01*
X84750000Y-86170000D02*
X83100000Y-86170000D01*
X86750000Y-86170000D02*
G75*
G02*
X84750000Y-86170000I-1000000J0D01*
G01*
X115250000Y-86170000D02*
G75*
G02*
X113250000Y-86170000I-1000000J0D01*
G01*
X116900000Y-86170000D02*
X115250000Y-86170000D01*
X116900000Y-96450000D02*
X116900000Y-86170000D01*
X111600000Y-96450000D02*
X116900000Y-96450000D01*
X111600000Y-86170000D02*
X111600000Y-96450000D01*
X113250000Y-86170000D02*
X111600000Y-86170000D01*
X97500000Y-125000000D02*
X97500000Y-123500000D01*
X96250000Y-121000000D02*
X91750000Y-121000000D01*
X90500000Y-123500000D02*
X90500000Y-125000000D01*
X91750000Y-127500000D02*
X96250000Y-127500000D01*
X95530000Y-74840000D02*
X95530000Y-74970000D01*
X95530000Y-74970000D02*
X90090000Y-74970000D01*
X90090000Y-74970000D02*
X90090000Y-74840000D01*
X95530000Y-72160000D02*
X95530000Y-72030000D01*
X95530000Y-72030000D02*
X90090000Y-72030000D01*
X90090000Y-72030000D02*
X90090000Y-72160000D01*
X94630000Y-74970000D02*
X94630000Y-72030000D01*
X94510000Y-74970000D02*
X94510000Y-72030000D01*
X94750000Y-74970000D02*
X94750000Y-72030000D01*
X116520000Y-84070000D02*
X111980000Y-84070000D01*
X116520000Y-81930000D02*
X111980000Y-81930000D01*
X116520000Y-84070000D02*
X116520000Y-84055000D01*
X116520000Y-81945000D02*
X116520000Y-81930000D01*
X111980000Y-84070000D02*
X111980000Y-84055000D01*
X111980000Y-81945000D02*
X111980000Y-81930000D01*
X83480000Y-81930000D02*
X88020000Y-81930000D01*
X83480000Y-84070000D02*
X88020000Y-84070000D01*
X83480000Y-81930000D02*
X83480000Y-81945000D01*
X83480000Y-84055000D02*
X83480000Y-84070000D01*
X88020000Y-81930000D02*
X88020000Y-81945000D01*
X88020000Y-84055000D02*
X88020000Y-84070000D01*
X111980000Y-98550000D02*
X116520000Y-98550000D01*
X111980000Y-100690000D02*
X116520000Y-100690000D01*
X111980000Y-98550000D02*
X111980000Y-98565000D01*
X111980000Y-100675000D02*
X111980000Y-100690000D01*
X116520000Y-98550000D02*
X116520000Y-98565000D01*
X116520000Y-100675000D02*
X116520000Y-100690000D01*
D10*
X99941733Y-73874609D02*
X100056019Y-73912704D01*
X100246495Y-73912704D01*
X100322685Y-73874609D01*
X100360780Y-73836514D01*
X100398876Y-73760323D01*
X100398876Y-73684133D01*
X100360780Y-73607942D01*
X100322685Y-73569847D01*
X100246495Y-73531752D01*
X100094114Y-73493657D01*
X100017923Y-73455561D01*
X99979828Y-73417466D01*
X99941733Y-73341276D01*
X99941733Y-73265085D01*
X99979828Y-73188895D01*
X100017923Y-73150800D01*
X100094114Y-73112704D01*
X100284590Y-73112704D01*
X100398876Y-73150800D01*
X100665542Y-73112704D02*
X100856019Y-73912704D01*
X101008400Y-73341276D01*
X101160780Y-73912704D01*
X101351257Y-73112704D01*
X102075066Y-73912704D02*
X101617923Y-73912704D01*
X101846495Y-73912704D02*
X101846495Y-73112704D01*
X101770304Y-73226990D01*
X101694114Y-73303180D01*
X101617923Y-73341276D01*
X99028571Y-107111904D02*
X99028571Y-106311904D01*
X99219047Y-106311904D01*
X99333333Y-106350000D01*
X99409523Y-106426190D01*
X99447619Y-106502380D01*
X99485714Y-106654761D01*
X99485714Y-106769047D01*
X99447619Y-106921428D01*
X99409523Y-106997619D01*
X99333333Y-107073809D01*
X99219047Y-107111904D01*
X99028571Y-107111904D01*
X99790476Y-107073809D02*
X99904761Y-107111904D01*
X100095238Y-107111904D01*
X100171428Y-107073809D01*
X100209523Y-107035714D01*
X100247619Y-106959523D01*
X100247619Y-106883333D01*
X100209523Y-106807142D01*
X100171428Y-106769047D01*
X100095238Y-106730952D01*
X99942857Y-106692857D01*
X99866666Y-106654761D01*
X99828571Y-106616666D01*
X99790476Y-106540476D01*
X99790476Y-106464285D01*
X99828571Y-106388095D01*
X99866666Y-106350000D01*
X99942857Y-106311904D01*
X100133333Y-106311904D01*
X100247619Y-106350000D01*
X101009523Y-107111904D02*
X100552380Y-107111904D01*
X100780952Y-107111904D02*
X100780952Y-106311904D01*
X100704761Y-106426190D01*
X100628571Y-106502380D01*
X100552380Y-106540476D01*
X106423809Y-107688095D02*
X106347619Y-107650000D01*
X106271428Y-107573809D01*
X106157142Y-107459523D01*
X106080952Y-107421428D01*
X106004761Y-107421428D01*
X106042857Y-107611904D02*
X105966666Y-107573809D01*
X105890476Y-107497619D01*
X105852380Y-107345238D01*
X105852380Y-107078571D01*
X105890476Y-106926190D01*
X105966666Y-106850000D01*
X106042857Y-106811904D01*
X106195238Y-106811904D01*
X106271428Y-106850000D01*
X106347619Y-106926190D01*
X106385714Y-107078571D01*
X106385714Y-107345238D01*
X106347619Y-107497619D01*
X106271428Y-107573809D01*
X106195238Y-107611904D01*
X106042857Y-107611904D01*
X106690476Y-106888095D02*
X106728571Y-106850000D01*
X106804761Y-106811904D01*
X106995238Y-106811904D01*
X107071428Y-106850000D01*
X107109523Y-106888095D01*
X107147619Y-106964285D01*
X107147619Y-107040476D01*
X107109523Y-107154761D01*
X106652380Y-107611904D01*
X107147619Y-107611904D01*
X93423809Y-107688095D02*
X93347619Y-107650000D01*
X93271428Y-107573809D01*
X93157142Y-107459523D01*
X93080952Y-107421428D01*
X93004761Y-107421428D01*
X93042857Y-107611904D02*
X92966666Y-107573809D01*
X92890476Y-107497619D01*
X92852380Y-107345238D01*
X92852380Y-107078571D01*
X92890476Y-106926190D01*
X92966666Y-106850000D01*
X93042857Y-106811904D01*
X93195238Y-106811904D01*
X93271428Y-106850000D01*
X93347619Y-106926190D01*
X93385714Y-107078571D01*
X93385714Y-107345238D01*
X93347619Y-107497619D01*
X93271428Y-107573809D01*
X93195238Y-107611904D01*
X93042857Y-107611904D01*
X94147619Y-107611904D02*
X93690476Y-107611904D01*
X93919047Y-107611904D02*
X93919047Y-106811904D01*
X93842857Y-106926190D01*
X93766666Y-107002380D01*
X93690476Y-107040476D01*
X108802500Y-106361904D02*
X108535833Y-105980952D01*
X108345357Y-106361904D02*
X108345357Y-105561904D01*
X108650119Y-105561904D01*
X108726309Y-105600000D01*
X108764404Y-105638095D01*
X108802500Y-105714285D01*
X108802500Y-105828571D01*
X108764404Y-105904761D01*
X108726309Y-105942857D01*
X108650119Y-105980952D01*
X108345357Y-105980952D01*
X109031071Y-105561904D02*
X109297738Y-106361904D01*
X109564404Y-105561904D01*
X110250119Y-106361904D02*
X109792976Y-106361904D01*
X110021547Y-106361904D02*
X110021547Y-105561904D01*
X109945357Y-105676190D01*
X109869166Y-105752380D01*
X109792976Y-105790476D01*
X114271428Y-106361904D02*
X113814285Y-106361904D01*
X114042857Y-106361904D02*
X114042857Y-105561904D01*
X113966666Y-105676190D01*
X113890476Y-105752380D01*
X113814285Y-105790476D01*
X114614285Y-106361904D02*
X114614285Y-105561904D01*
X114880952Y-106133333D01*
X115147619Y-105561904D01*
X115147619Y-106361904D01*
X110249880Y-124573809D02*
X110364166Y-124611904D01*
X110554642Y-124611904D01*
X110630833Y-124573809D01*
X110668928Y-124535714D01*
X110707023Y-124459523D01*
X110707023Y-124383333D01*
X110668928Y-124307142D01*
X110630833Y-124269047D01*
X110554642Y-124230952D01*
X110402261Y-124192857D01*
X110326071Y-124154761D01*
X110287976Y-124116666D01*
X110249880Y-124040476D01*
X110249880Y-123964285D01*
X110287976Y-123888095D01*
X110326071Y-123850000D01*
X110402261Y-123811904D01*
X110592738Y-123811904D01*
X110707023Y-123850000D01*
X110973690Y-123811904D02*
X111164166Y-124611904D01*
X111316547Y-124040476D01*
X111468928Y-124611904D01*
X111659404Y-123811904D01*
X111926071Y-123888095D02*
X111964166Y-123850000D01*
X112040357Y-123811904D01*
X112230833Y-123811904D01*
X112307023Y-123850000D01*
X112345119Y-123888095D01*
X112383214Y-123964285D01*
X112383214Y-124040476D01*
X112345119Y-124154761D01*
X111887976Y-124611904D01*
X112383214Y-124611904D01*
X104309523Y-129054761D02*
X104452380Y-129102380D01*
X104690476Y-129102380D01*
X104785714Y-129054761D01*
X104833333Y-129007142D01*
X104880952Y-128911904D01*
X104880952Y-128816666D01*
X104833333Y-128721428D01*
X104785714Y-128673809D01*
X104690476Y-128626190D01*
X104500000Y-128578571D01*
X104404761Y-128530952D01*
X104357142Y-128483333D01*
X104309523Y-128388095D01*
X104309523Y-128292857D01*
X104357142Y-128197619D01*
X104404761Y-128150000D01*
X104500000Y-128102380D01*
X104738095Y-128102380D01*
X104880952Y-128150000D01*
X105166666Y-128102380D02*
X105738095Y-128102380D01*
X105452380Y-129102380D02*
X105452380Y-128102380D01*
X106261904Y-128102380D02*
X106452380Y-128102380D01*
X106547619Y-128150000D01*
X106642857Y-128245238D01*
X106690476Y-128435714D01*
X106690476Y-128769047D01*
X106642857Y-128959523D01*
X106547619Y-129054761D01*
X106452380Y-129102380D01*
X106261904Y-129102380D01*
X106166666Y-129054761D01*
X106071428Y-128959523D01*
X106023809Y-128769047D01*
X106023809Y-128435714D01*
X106071428Y-128245238D01*
X106166666Y-128150000D01*
X106261904Y-128102380D01*
X107119047Y-129102380D02*
X107119047Y-128102380D01*
X107500000Y-128102380D01*
X107595238Y-128150000D01*
X107642857Y-128197619D01*
X107690476Y-128292857D01*
X107690476Y-128435714D01*
X107642857Y-128530952D01*
X107595238Y-128578571D01*
X107500000Y-128626190D01*
X107119047Y-128626190D01*
X118535119Y-112861904D02*
X118268452Y-112480952D01*
X118077976Y-112861904D02*
X118077976Y-112061904D01*
X118382738Y-112061904D01*
X118458928Y-112100000D01*
X118497023Y-112138095D01*
X118535119Y-112214285D01*
X118535119Y-112328571D01*
X118497023Y-112404761D01*
X118458928Y-112442857D01*
X118382738Y-112480952D01*
X118077976Y-112480952D01*
X119258928Y-112061904D02*
X118877976Y-112061904D01*
X118839880Y-112442857D01*
X118877976Y-112404761D01*
X118954166Y-112366666D01*
X119144642Y-112366666D01*
X119220833Y-112404761D01*
X119258928Y-112442857D01*
X119297023Y-112519047D01*
X119297023Y-112709523D01*
X119258928Y-112785714D01*
X119220833Y-112823809D01*
X119144642Y-112861904D01*
X118954166Y-112861904D01*
X118877976Y-112823809D01*
X118839880Y-112785714D01*
X114103971Y-112912704D02*
X113646828Y-112912704D01*
X113875400Y-112912704D02*
X113875400Y-112112704D01*
X113799209Y-112226990D01*
X113723019Y-112303180D01*
X113646828Y-112341276D01*
X114446828Y-112912704D02*
X114446828Y-112112704D01*
X114903971Y-112912704D02*
X114561114Y-112455561D01*
X114903971Y-112112704D02*
X114446828Y-112569847D01*
X101491666Y-116111904D02*
X101225000Y-115730952D01*
X101034523Y-116111904D02*
X101034523Y-115311904D01*
X101339285Y-115311904D01*
X101415476Y-115350000D01*
X101453571Y-115388095D01*
X101491666Y-115464285D01*
X101491666Y-115578571D01*
X101453571Y-115654761D01*
X101415476Y-115692857D01*
X101339285Y-115730952D01*
X101034523Y-115730952D01*
X102177380Y-115578571D02*
X102177380Y-116111904D01*
X101986904Y-115273809D02*
X101796428Y-115845238D01*
X102291666Y-115845238D01*
X101986904Y-111711428D02*
X101986904Y-112168571D01*
X101986904Y-111940000D02*
X101186904Y-111940000D01*
X101301190Y-112016190D01*
X101377380Y-112092380D01*
X101415476Y-112168571D01*
X101986904Y-111368571D02*
X101186904Y-111368571D01*
X101986904Y-110911428D02*
X101529761Y-111254285D01*
X101186904Y-110911428D02*
X101644047Y-111368571D01*
X98241666Y-116111904D02*
X97975000Y-115730952D01*
X97784523Y-116111904D02*
X97784523Y-115311904D01*
X98089285Y-115311904D01*
X98165476Y-115350000D01*
X98203571Y-115388095D01*
X98241666Y-115464285D01*
X98241666Y-115578571D01*
X98203571Y-115654761D01*
X98165476Y-115692857D01*
X98089285Y-115730952D01*
X97784523Y-115730952D01*
X98508333Y-115311904D02*
X99003571Y-115311904D01*
X98736904Y-115616666D01*
X98851190Y-115616666D01*
X98927380Y-115654761D01*
X98965476Y-115692857D01*
X99003571Y-115769047D01*
X99003571Y-115959523D01*
X98965476Y-116035714D01*
X98927380Y-116073809D01*
X98851190Y-116111904D01*
X98622619Y-116111904D01*
X98546428Y-116073809D01*
X98508333Y-116035714D01*
X98736904Y-111711428D02*
X98736904Y-112168571D01*
X98736904Y-111940000D02*
X97936904Y-111940000D01*
X98051190Y-112016190D01*
X98127380Y-112092380D01*
X98165476Y-112168571D01*
X98736904Y-111368571D02*
X97936904Y-111368571D01*
X98736904Y-110911428D02*
X98279761Y-111254285D01*
X97936904Y-110911428D02*
X98394047Y-111368571D01*
X81198214Y-112861904D02*
X80931547Y-112480952D01*
X80741071Y-112861904D02*
X80741071Y-112061904D01*
X81045833Y-112061904D01*
X81122023Y-112100000D01*
X81160119Y-112138095D01*
X81198214Y-112214285D01*
X81198214Y-112328571D01*
X81160119Y-112404761D01*
X81122023Y-112442857D01*
X81045833Y-112480952D01*
X80741071Y-112480952D01*
X81502976Y-112138095D02*
X81541071Y-112100000D01*
X81617261Y-112061904D01*
X81807738Y-112061904D01*
X81883928Y-112100000D01*
X81922023Y-112138095D01*
X81960119Y-112214285D01*
X81960119Y-112290476D01*
X81922023Y-112404761D01*
X81464880Y-112861904D01*
X81960119Y-112861904D01*
X85578571Y-112861904D02*
X85121428Y-112861904D01*
X85350000Y-112861904D02*
X85350000Y-112061904D01*
X85273809Y-112176190D01*
X85197619Y-112252380D01*
X85121428Y-112290476D01*
X85921428Y-112861904D02*
X85921428Y-112061904D01*
X86378571Y-112861904D02*
X86035714Y-112404761D01*
X86378571Y-112061904D02*
X85921428Y-112519047D01*
X119287976Y-119091904D02*
X119287976Y-118291904D01*
X119478452Y-118291904D01*
X119592738Y-118330000D01*
X119668928Y-118406190D01*
X119707023Y-118482380D01*
X119745119Y-118634761D01*
X119745119Y-118749047D01*
X119707023Y-118901428D01*
X119668928Y-118977619D01*
X119592738Y-119053809D01*
X119478452Y-119091904D01*
X119287976Y-119091904D01*
X120011785Y-118291904D02*
X120507023Y-118291904D01*
X120240357Y-118596666D01*
X120354642Y-118596666D01*
X120430833Y-118634761D01*
X120468928Y-118672857D01*
X120507023Y-118749047D01*
X120507023Y-118939523D01*
X120468928Y-119015714D01*
X120430833Y-119053809D01*
X120354642Y-119091904D01*
X120126071Y-119091904D01*
X120049880Y-119053809D01*
X120011785Y-119015714D01*
X113809523Y-122904761D02*
X113952380Y-122952380D01*
X114190476Y-122952380D01*
X114285714Y-122904761D01*
X114333333Y-122857142D01*
X114380952Y-122761904D01*
X114380952Y-122666666D01*
X114333333Y-122571428D01*
X114285714Y-122523809D01*
X114190476Y-122476190D01*
X114000000Y-122428571D01*
X113904761Y-122380952D01*
X113857142Y-122333333D01*
X113809523Y-122238095D01*
X113809523Y-122142857D01*
X113857142Y-122047619D01*
X113904761Y-122000000D01*
X114000000Y-121952380D01*
X114238095Y-121952380D01*
X114380952Y-122000000D01*
X114666666Y-121952380D02*
X115238095Y-121952380D01*
X114952380Y-122952380D02*
X114952380Y-121952380D01*
X115761904Y-121952380D02*
X115952380Y-121952380D01*
X116047619Y-122000000D01*
X116142857Y-122095238D01*
X116190476Y-122285714D01*
X116190476Y-122619047D01*
X116142857Y-122809523D01*
X116047619Y-122904761D01*
X115952380Y-122952380D01*
X115761904Y-122952380D01*
X115666666Y-122904761D01*
X115571428Y-122809523D01*
X115523809Y-122619047D01*
X115523809Y-122285714D01*
X115571428Y-122095238D01*
X115666666Y-122000000D01*
X115761904Y-121952380D01*
X116619047Y-122952380D02*
X116619047Y-121952380D01*
X117000000Y-121952380D01*
X117095238Y-122000000D01*
X117142857Y-122047619D01*
X117190476Y-122142857D01*
X117190476Y-122285714D01*
X117142857Y-122380952D01*
X117095238Y-122428571D01*
X117000000Y-122476190D01*
X116619047Y-122476190D01*
X79531071Y-119091904D02*
X79531071Y-118291904D01*
X79721547Y-118291904D01*
X79835833Y-118330000D01*
X79912023Y-118406190D01*
X79950119Y-118482380D01*
X79988214Y-118634761D01*
X79988214Y-118749047D01*
X79950119Y-118901428D01*
X79912023Y-118977619D01*
X79835833Y-119053809D01*
X79721547Y-119091904D01*
X79531071Y-119091904D01*
X80292976Y-118368095D02*
X80331071Y-118330000D01*
X80407261Y-118291904D01*
X80597738Y-118291904D01*
X80673928Y-118330000D01*
X80712023Y-118368095D01*
X80750119Y-118444285D01*
X80750119Y-118520476D01*
X80712023Y-118634761D01*
X80254880Y-119091904D01*
X80750119Y-119091904D01*
X82523809Y-122904761D02*
X82666666Y-122952380D01*
X82904761Y-122952380D01*
X83000000Y-122904761D01*
X83047619Y-122857142D01*
X83095238Y-122761904D01*
X83095238Y-122666666D01*
X83047619Y-122571428D01*
X83000000Y-122523809D01*
X82904761Y-122476190D01*
X82714285Y-122428571D01*
X82619047Y-122380952D01*
X82571428Y-122333333D01*
X82523809Y-122238095D01*
X82523809Y-122142857D01*
X82571428Y-122047619D01*
X82619047Y-122000000D01*
X82714285Y-121952380D01*
X82952380Y-121952380D01*
X83095238Y-122000000D01*
X83380952Y-121952380D02*
X83952380Y-121952380D01*
X83666666Y-122952380D02*
X83666666Y-121952380D01*
X84238095Y-122666666D02*
X84714285Y-122666666D01*
X84142857Y-122952380D02*
X84476190Y-121952380D01*
X84809523Y-122952380D01*
X85714285Y-122952380D02*
X85380952Y-122476190D01*
X85142857Y-122952380D02*
X85142857Y-121952380D01*
X85523809Y-121952380D01*
X85619047Y-122000000D01*
X85666666Y-122047619D01*
X85714285Y-122142857D01*
X85714285Y-122285714D01*
X85666666Y-122380952D01*
X85619047Y-122428571D01*
X85523809Y-122476190D01*
X85142857Y-122476190D01*
X86000000Y-121952380D02*
X86571428Y-121952380D01*
X86285714Y-122952380D02*
X86285714Y-121952380D01*
X98245119Y-118285714D02*
X98207023Y-118323809D01*
X98092738Y-118361904D01*
X98016547Y-118361904D01*
X97902261Y-118323809D01*
X97826071Y-118247619D01*
X97787976Y-118171428D01*
X97749880Y-118019047D01*
X97749880Y-117904761D01*
X97787976Y-117752380D01*
X97826071Y-117676190D01*
X97902261Y-117600000D01*
X98016547Y-117561904D01*
X98092738Y-117561904D01*
X98207023Y-117600000D01*
X98245119Y-117638095D01*
X98930833Y-117828571D02*
X98930833Y-118361904D01*
X98740357Y-117523809D02*
X98549880Y-118095238D01*
X99045119Y-118095238D01*
X92685714Y-117561904D02*
X92761904Y-117561904D01*
X92838095Y-117600000D01*
X92876190Y-117638095D01*
X92914285Y-117714285D01*
X92952380Y-117866666D01*
X92952380Y-118057142D01*
X92914285Y-118209523D01*
X92876190Y-118285714D01*
X92838095Y-118323809D01*
X92761904Y-118361904D01*
X92685714Y-118361904D01*
X92609523Y-118323809D01*
X92571428Y-118285714D01*
X92533333Y-118209523D01*
X92495238Y-118057142D01*
X92495238Y-117866666D01*
X92533333Y-117714285D01*
X92571428Y-117638095D01*
X92609523Y-117600000D01*
X92685714Y-117561904D01*
X93295238Y-118285714D02*
X93333333Y-118323809D01*
X93295238Y-118361904D01*
X93257142Y-118323809D01*
X93295238Y-118285714D01*
X93295238Y-118361904D01*
X94095238Y-118361904D02*
X93638095Y-118361904D01*
X93866666Y-118361904D02*
X93866666Y-117561904D01*
X93790476Y-117676190D01*
X93714285Y-117752380D01*
X93638095Y-117790476D01*
X94780952Y-117828571D02*
X94780952Y-118361904D01*
X94438095Y-117828571D02*
X94438095Y-118247619D01*
X94476190Y-118323809D01*
X94552380Y-118361904D01*
X94666666Y-118361904D01*
X94742857Y-118323809D01*
X94780952Y-118285714D01*
X95428571Y-117942857D02*
X95161904Y-117942857D01*
X95161904Y-118361904D02*
X95161904Y-117561904D01*
X95542857Y-117561904D01*
X110245119Y-118285714D02*
X110207023Y-118323809D01*
X110092738Y-118361904D01*
X110016547Y-118361904D01*
X109902261Y-118323809D01*
X109826071Y-118247619D01*
X109787976Y-118171428D01*
X109749880Y-118019047D01*
X109749880Y-117904761D01*
X109787976Y-117752380D01*
X109826071Y-117676190D01*
X109902261Y-117600000D01*
X110016547Y-117561904D01*
X110092738Y-117561904D01*
X110207023Y-117600000D01*
X110245119Y-117638095D01*
X110511785Y-117561904D02*
X111007023Y-117561904D01*
X110740357Y-117866666D01*
X110854642Y-117866666D01*
X110930833Y-117904761D01*
X110968928Y-117942857D01*
X111007023Y-118019047D01*
X111007023Y-118209523D01*
X110968928Y-118285714D01*
X110930833Y-118323809D01*
X110854642Y-118361904D01*
X110626071Y-118361904D01*
X110549880Y-118323809D01*
X110511785Y-118285714D01*
X104685714Y-117561904D02*
X104761904Y-117561904D01*
X104838095Y-117600000D01*
X104876190Y-117638095D01*
X104914285Y-117714285D01*
X104952380Y-117866666D01*
X104952380Y-118057142D01*
X104914285Y-118209523D01*
X104876190Y-118285714D01*
X104838095Y-118323809D01*
X104761904Y-118361904D01*
X104685714Y-118361904D01*
X104609523Y-118323809D01*
X104571428Y-118285714D01*
X104533333Y-118209523D01*
X104495238Y-118057142D01*
X104495238Y-117866666D01*
X104533333Y-117714285D01*
X104571428Y-117638095D01*
X104609523Y-117600000D01*
X104685714Y-117561904D01*
X105295238Y-118285714D02*
X105333333Y-118323809D01*
X105295238Y-118361904D01*
X105257142Y-118323809D01*
X105295238Y-118285714D01*
X105295238Y-118361904D01*
X106095238Y-118361904D02*
X105638095Y-118361904D01*
X105866666Y-118361904D02*
X105866666Y-117561904D01*
X105790476Y-117676190D01*
X105714285Y-117752380D01*
X105638095Y-117790476D01*
X106780952Y-117828571D02*
X106780952Y-118361904D01*
X106438095Y-117828571D02*
X106438095Y-118247619D01*
X106476190Y-118323809D01*
X106552380Y-118361904D01*
X106666666Y-118361904D01*
X106742857Y-118323809D01*
X106780952Y-118285714D01*
X107428571Y-117942857D02*
X107161904Y-117942857D01*
X107161904Y-118361904D02*
X107161904Y-117561904D01*
X107542857Y-117561904D01*
X81238214Y-109285714D02*
X81200119Y-109323809D01*
X81085833Y-109361904D01*
X81009642Y-109361904D01*
X80895357Y-109323809D01*
X80819166Y-109247619D01*
X80781071Y-109171428D01*
X80742976Y-109019047D01*
X80742976Y-108904761D01*
X80781071Y-108752380D01*
X80819166Y-108676190D01*
X80895357Y-108600000D01*
X81009642Y-108561904D01*
X81085833Y-108561904D01*
X81200119Y-108600000D01*
X81238214Y-108638095D01*
X82000119Y-109361904D02*
X81542976Y-109361904D01*
X81771547Y-109361904D02*
X81771547Y-108561904D01*
X81695357Y-108676190D01*
X81619166Y-108752380D01*
X81542976Y-108790476D01*
X84435714Y-108561904D02*
X84511904Y-108561904D01*
X84588095Y-108600000D01*
X84626190Y-108638095D01*
X84664285Y-108714285D01*
X84702380Y-108866666D01*
X84702380Y-109057142D01*
X84664285Y-109209523D01*
X84626190Y-109285714D01*
X84588095Y-109323809D01*
X84511904Y-109361904D01*
X84435714Y-109361904D01*
X84359523Y-109323809D01*
X84321428Y-109285714D01*
X84283333Y-109209523D01*
X84245238Y-109057142D01*
X84245238Y-108866666D01*
X84283333Y-108714285D01*
X84321428Y-108638095D01*
X84359523Y-108600000D01*
X84435714Y-108561904D01*
X85045238Y-109285714D02*
X85083333Y-109323809D01*
X85045238Y-109361904D01*
X85007142Y-109323809D01*
X85045238Y-109285714D01*
X85045238Y-109361904D01*
X85845238Y-109361904D02*
X85388095Y-109361904D01*
X85616666Y-109361904D02*
X85616666Y-108561904D01*
X85540476Y-108676190D01*
X85464285Y-108752380D01*
X85388095Y-108790476D01*
X86530952Y-108828571D02*
X86530952Y-109361904D01*
X86188095Y-108828571D02*
X86188095Y-109247619D01*
X86226190Y-109323809D01*
X86302380Y-109361904D01*
X86416666Y-109361904D01*
X86492857Y-109323809D01*
X86530952Y-109285714D01*
X87178571Y-108942857D02*
X86911904Y-108942857D01*
X86911904Y-109361904D02*
X86911904Y-108561904D01*
X87292857Y-108561904D01*
X85140476Y-85061904D02*
X85140476Y-85709523D01*
X85178571Y-85785714D01*
X85216666Y-85823809D01*
X85292857Y-85861904D01*
X85445238Y-85861904D01*
X85521428Y-85823809D01*
X85559523Y-85785714D01*
X85597619Y-85709523D01*
X85597619Y-85061904D01*
X85940476Y-85138095D02*
X85978571Y-85100000D01*
X86054761Y-85061904D01*
X86245238Y-85061904D01*
X86321428Y-85100000D01*
X86359523Y-85138095D01*
X86397619Y-85214285D01*
X86397619Y-85290476D01*
X86359523Y-85404761D01*
X85902380Y-85861904D01*
X86397619Y-85861904D01*
X86035714Y-98066190D02*
X86073809Y-98104285D01*
X86111904Y-98218571D01*
X86111904Y-98294761D01*
X86073809Y-98409047D01*
X85997619Y-98485238D01*
X85921428Y-98523333D01*
X85769047Y-98561428D01*
X85654761Y-98561428D01*
X85502380Y-98523333D01*
X85426190Y-98485238D01*
X85350000Y-98409047D01*
X85311904Y-98294761D01*
X85311904Y-98218571D01*
X85350000Y-98104285D01*
X85388095Y-98066190D01*
X86111904Y-97723333D02*
X85311904Y-97723333D01*
X85311904Y-97532857D01*
X85350000Y-97418571D01*
X85426190Y-97342380D01*
X85502380Y-97304285D01*
X85654761Y-97266190D01*
X85769047Y-97266190D01*
X85921428Y-97304285D01*
X85997619Y-97342380D01*
X86073809Y-97418571D01*
X86111904Y-97532857D01*
X86111904Y-97723333D01*
X85578571Y-96580476D02*
X86111904Y-96580476D01*
X85273809Y-96770952D02*
X85845238Y-96961428D01*
X85845238Y-96466190D01*
X85311904Y-96009047D02*
X85311904Y-95932857D01*
X85350000Y-95856666D01*
X85388095Y-95818571D01*
X85464285Y-95780476D01*
X85616666Y-95742380D01*
X85807142Y-95742380D01*
X85959523Y-95780476D01*
X86035714Y-95818571D01*
X86073809Y-95856666D01*
X86111904Y-95932857D01*
X86111904Y-96009047D01*
X86073809Y-96085238D01*
X86035714Y-96123333D01*
X85959523Y-96161428D01*
X85807142Y-96199523D01*
X85616666Y-96199523D01*
X85464285Y-96161428D01*
X85388095Y-96123333D01*
X85350000Y-96085238D01*
X85311904Y-96009047D01*
X85388095Y-95437619D02*
X85350000Y-95399523D01*
X85311904Y-95323333D01*
X85311904Y-95132857D01*
X85350000Y-95056666D01*
X85388095Y-95018571D01*
X85464285Y-94980476D01*
X85540476Y-94980476D01*
X85654761Y-95018571D01*
X86111904Y-95475714D01*
X86111904Y-94980476D01*
X85311904Y-94294761D02*
X85311904Y-94447142D01*
X85350000Y-94523333D01*
X85388095Y-94561428D01*
X85502380Y-94637619D01*
X85654761Y-94675714D01*
X85959523Y-94675714D01*
X86035714Y-94637619D01*
X86073809Y-94599523D01*
X86111904Y-94523333D01*
X86111904Y-94370952D01*
X86073809Y-94294761D01*
X86035714Y-94256666D01*
X85959523Y-94218571D01*
X85769047Y-94218571D01*
X85692857Y-94256666D01*
X85654761Y-94294761D01*
X85616666Y-94370952D01*
X85616666Y-94523333D01*
X85654761Y-94599523D01*
X85692857Y-94637619D01*
X85769047Y-94675714D01*
X113640476Y-85061904D02*
X113640476Y-85709523D01*
X113678571Y-85785714D01*
X113716666Y-85823809D01*
X113792857Y-85861904D01*
X113945238Y-85861904D01*
X114021428Y-85823809D01*
X114059523Y-85785714D01*
X114097619Y-85709523D01*
X114097619Y-85061904D01*
X114897619Y-85861904D02*
X114440476Y-85861904D01*
X114669047Y-85861904D02*
X114669047Y-85061904D01*
X114592857Y-85176190D01*
X114516666Y-85252380D01*
X114440476Y-85290476D01*
X114611904Y-93443333D02*
X113811904Y-93443333D01*
X114611904Y-92986190D01*
X113811904Y-92986190D01*
X114192857Y-92605238D02*
X114192857Y-92338571D01*
X114611904Y-92224285D02*
X114611904Y-92605238D01*
X113811904Y-92605238D01*
X113811904Y-92224285D01*
X113811904Y-91500476D02*
X113811904Y-91881428D01*
X114192857Y-91919523D01*
X114154761Y-91881428D01*
X114116666Y-91805238D01*
X114116666Y-91614761D01*
X114154761Y-91538571D01*
X114192857Y-91500476D01*
X114269047Y-91462380D01*
X114459523Y-91462380D01*
X114535714Y-91500476D01*
X114573809Y-91538571D01*
X114611904Y-91614761D01*
X114611904Y-91805238D01*
X114573809Y-91881428D01*
X114535714Y-91919523D01*
X113811904Y-90738571D02*
X113811904Y-91119523D01*
X114192857Y-91157619D01*
X114154761Y-91119523D01*
X114116666Y-91043333D01*
X114116666Y-90852857D01*
X114154761Y-90776666D01*
X114192857Y-90738571D01*
X114269047Y-90700476D01*
X114459523Y-90700476D01*
X114535714Y-90738571D01*
X114573809Y-90776666D01*
X114611904Y-90852857D01*
X114611904Y-91043333D01*
X114573809Y-91119523D01*
X114535714Y-91157619D01*
X113811904Y-89976666D02*
X113811904Y-90357619D01*
X114192857Y-90395714D01*
X114154761Y-90357619D01*
X114116666Y-90281428D01*
X114116666Y-90090952D01*
X114154761Y-90014761D01*
X114192857Y-89976666D01*
X114269047Y-89938571D01*
X114459523Y-89938571D01*
X114535714Y-89976666D01*
X114573809Y-90014761D01*
X114611904Y-90090952D01*
X114611904Y-90281428D01*
X114573809Y-90357619D01*
X114535714Y-90395714D01*
X114611904Y-89595714D02*
X113811904Y-89595714D01*
X113811904Y-89290952D01*
X113850000Y-89214761D01*
X113888095Y-89176666D01*
X113964285Y-89138571D01*
X114078571Y-89138571D01*
X114154761Y-89176666D01*
X114192857Y-89214761D01*
X114230952Y-89290952D01*
X114230952Y-89595714D01*
X87616785Y-124573809D02*
X87731071Y-124611904D01*
X87921547Y-124611904D01*
X87997738Y-124573809D01*
X88035833Y-124535714D01*
X88073928Y-124459523D01*
X88073928Y-124383333D01*
X88035833Y-124307142D01*
X87997738Y-124269047D01*
X87921547Y-124230952D01*
X87769166Y-124192857D01*
X87692976Y-124154761D01*
X87654880Y-124116666D01*
X87616785Y-124040476D01*
X87616785Y-123964285D01*
X87654880Y-123888095D01*
X87692976Y-123850000D01*
X87769166Y-123811904D01*
X87959642Y-123811904D01*
X88073928Y-123850000D01*
X88340595Y-123811904D02*
X88531071Y-124611904D01*
X88683452Y-124040476D01*
X88835833Y-124611904D01*
X89026309Y-123811904D01*
X89254880Y-123811904D02*
X89750119Y-123811904D01*
X89483452Y-124116666D01*
X89597738Y-124116666D01*
X89673928Y-124154761D01*
X89712023Y-124192857D01*
X89750119Y-124269047D01*
X89750119Y-124459523D01*
X89712023Y-124535714D01*
X89673928Y-124573809D01*
X89597738Y-124611904D01*
X89369166Y-124611904D01*
X89292976Y-124573809D01*
X89254880Y-124535714D01*
X92023809Y-129054761D02*
X92166666Y-129102380D01*
X92404761Y-129102380D01*
X92500000Y-129054761D01*
X92547619Y-129007142D01*
X92595238Y-128911904D01*
X92595238Y-128816666D01*
X92547619Y-128721428D01*
X92500000Y-128673809D01*
X92404761Y-128626190D01*
X92214285Y-128578571D01*
X92119047Y-128530952D01*
X92071428Y-128483333D01*
X92023809Y-128388095D01*
X92023809Y-128292857D01*
X92071428Y-128197619D01*
X92119047Y-128150000D01*
X92214285Y-128102380D01*
X92452380Y-128102380D01*
X92595238Y-128150000D01*
X92880952Y-128102380D02*
X93452380Y-128102380D01*
X93166666Y-129102380D02*
X93166666Y-128102380D01*
X93738095Y-128816666D02*
X94214285Y-128816666D01*
X93642857Y-129102380D02*
X93976190Y-128102380D01*
X94309523Y-129102380D01*
X95214285Y-129102380D02*
X94880952Y-128626190D01*
X94642857Y-129102380D02*
X94642857Y-128102380D01*
X95023809Y-128102380D01*
X95119047Y-128150000D01*
X95166666Y-128197619D01*
X95214285Y-128292857D01*
X95214285Y-128435714D01*
X95166666Y-128530952D01*
X95119047Y-128578571D01*
X95023809Y-128626190D01*
X94642857Y-128626190D01*
X95500000Y-128102380D02*
X96071428Y-128102380D01*
X95785714Y-129102380D02*
X95785714Y-128102380D01*
X86031071Y-73861904D02*
X86031071Y-73061904D01*
X86221547Y-73061904D01*
X86335833Y-73100000D01*
X86412023Y-73176190D01*
X86450119Y-73252380D01*
X86488214Y-73404761D01*
X86488214Y-73519047D01*
X86450119Y-73671428D01*
X86412023Y-73747619D01*
X86335833Y-73823809D01*
X86221547Y-73861904D01*
X86031071Y-73861904D01*
X87250119Y-73861904D02*
X86792976Y-73861904D01*
X87021547Y-73861904D02*
X87021547Y-73061904D01*
X86945357Y-73176190D01*
X86869166Y-73252380D01*
X86792976Y-73290476D01*
X91297619Y-73061904D02*
X90916666Y-73061904D01*
X90878571Y-73442857D01*
X90916666Y-73404761D01*
X90992857Y-73366666D01*
X91183333Y-73366666D01*
X91259523Y-73404761D01*
X91297619Y-73442857D01*
X91335714Y-73519047D01*
X91335714Y-73709523D01*
X91297619Y-73785714D01*
X91259523Y-73823809D01*
X91183333Y-73861904D01*
X90992857Y-73861904D01*
X90916666Y-73823809D01*
X90878571Y-73785714D01*
X91792857Y-73404761D02*
X91716666Y-73366666D01*
X91678571Y-73328571D01*
X91640476Y-73252380D01*
X91640476Y-73214285D01*
X91678571Y-73138095D01*
X91716666Y-73100000D01*
X91792857Y-73061904D01*
X91945238Y-73061904D01*
X92021428Y-73100000D01*
X92059523Y-73138095D01*
X92097619Y-73214285D01*
X92097619Y-73252380D01*
X92059523Y-73328571D01*
X92021428Y-73366666D01*
X91945238Y-73404761D01*
X91792857Y-73404761D01*
X91716666Y-73442857D01*
X91678571Y-73480952D01*
X91640476Y-73557142D01*
X91640476Y-73709523D01*
X91678571Y-73785714D01*
X91716666Y-73823809D01*
X91792857Y-73861904D01*
X91945238Y-73861904D01*
X92021428Y-73823809D01*
X92059523Y-73785714D01*
X92097619Y-73709523D01*
X92097619Y-73557142D01*
X92059523Y-73480952D01*
X92021428Y-73442857D01*
X91945238Y-73404761D01*
X92859523Y-73861904D02*
X92402380Y-73861904D01*
X92630952Y-73861904D02*
X92630952Y-73061904D01*
X92554761Y-73176190D01*
X92478571Y-73252380D01*
X92402380Y-73290476D01*
X93240476Y-73861904D02*
X93392857Y-73861904D01*
X93469047Y-73823809D01*
X93507142Y-73785714D01*
X93583333Y-73671428D01*
X93621428Y-73519047D01*
X93621428Y-73214285D01*
X93583333Y-73138095D01*
X93545238Y-73100000D01*
X93469047Y-73061904D01*
X93316666Y-73061904D01*
X93240476Y-73100000D01*
X93202380Y-73138095D01*
X93164285Y-73214285D01*
X93164285Y-73404761D01*
X93202380Y-73480952D01*
X93240476Y-73519047D01*
X93316666Y-73557142D01*
X93469047Y-73557142D01*
X93545238Y-73519047D01*
X93583333Y-73480952D01*
X93621428Y-73404761D01*
X96358095Y-76052380D02*
X96358095Y-75052380D01*
X96929523Y-76052380D02*
X96500952Y-75480952D01*
X96929523Y-75052380D02*
X96358095Y-75623809D01*
X118495119Y-83285714D02*
X118457023Y-83323809D01*
X118342738Y-83361904D01*
X118266547Y-83361904D01*
X118152261Y-83323809D01*
X118076071Y-83247619D01*
X118037976Y-83171428D01*
X117999880Y-83019047D01*
X117999880Y-82904761D01*
X118037976Y-82752380D01*
X118076071Y-82676190D01*
X118152261Y-82600000D01*
X118266547Y-82561904D01*
X118342738Y-82561904D01*
X118457023Y-82600000D01*
X118495119Y-82638095D01*
X119180833Y-82561904D02*
X119028452Y-82561904D01*
X118952261Y-82600000D01*
X118914166Y-82638095D01*
X118837976Y-82752380D01*
X118799880Y-82904761D01*
X118799880Y-83209523D01*
X118837976Y-83285714D01*
X118876071Y-83323809D01*
X118952261Y-83361904D01*
X119104642Y-83361904D01*
X119180833Y-83323809D01*
X119218928Y-83285714D01*
X119257023Y-83209523D01*
X119257023Y-83019047D01*
X119218928Y-82942857D01*
X119180833Y-82904761D01*
X119104642Y-82866666D01*
X118952261Y-82866666D01*
X118876071Y-82904761D01*
X118837976Y-82942857D01*
X118799880Y-83019047D01*
X112935714Y-82561904D02*
X113011904Y-82561904D01*
X113088095Y-82600000D01*
X113126190Y-82638095D01*
X113164285Y-82714285D01*
X113202380Y-82866666D01*
X113202380Y-83057142D01*
X113164285Y-83209523D01*
X113126190Y-83285714D01*
X113088095Y-83323809D01*
X113011904Y-83361904D01*
X112935714Y-83361904D01*
X112859523Y-83323809D01*
X112821428Y-83285714D01*
X112783333Y-83209523D01*
X112745238Y-83057142D01*
X112745238Y-82866666D01*
X112783333Y-82714285D01*
X112821428Y-82638095D01*
X112859523Y-82600000D01*
X112935714Y-82561904D01*
X113545238Y-83285714D02*
X113583333Y-83323809D01*
X113545238Y-83361904D01*
X113507142Y-83323809D01*
X113545238Y-83285714D01*
X113545238Y-83361904D01*
X114345238Y-83361904D02*
X113888095Y-83361904D01*
X114116666Y-83361904D02*
X114116666Y-82561904D01*
X114040476Y-82676190D01*
X113964285Y-82752380D01*
X113888095Y-82790476D01*
X115030952Y-82828571D02*
X115030952Y-83361904D01*
X114688095Y-82828571D02*
X114688095Y-83247619D01*
X114726190Y-83323809D01*
X114802380Y-83361904D01*
X114916666Y-83361904D01*
X114992857Y-83323809D01*
X115030952Y-83285714D01*
X115678571Y-82942857D02*
X115411904Y-82942857D01*
X115411904Y-83361904D02*
X115411904Y-82561904D01*
X115792857Y-82561904D01*
X81238214Y-83285714D02*
X81200119Y-83323809D01*
X81085833Y-83361904D01*
X81009642Y-83361904D01*
X80895357Y-83323809D01*
X80819166Y-83247619D01*
X80781071Y-83171428D01*
X80742976Y-83019047D01*
X80742976Y-82904761D01*
X80781071Y-82752380D01*
X80819166Y-82676190D01*
X80895357Y-82600000D01*
X81009642Y-82561904D01*
X81085833Y-82561904D01*
X81200119Y-82600000D01*
X81238214Y-82638095D01*
X81962023Y-82561904D02*
X81581071Y-82561904D01*
X81542976Y-82942857D01*
X81581071Y-82904761D01*
X81657261Y-82866666D01*
X81847738Y-82866666D01*
X81923928Y-82904761D01*
X81962023Y-82942857D01*
X82000119Y-83019047D01*
X82000119Y-83209523D01*
X81962023Y-83285714D01*
X81923928Y-83323809D01*
X81847738Y-83361904D01*
X81657261Y-83361904D01*
X81581071Y-83323809D01*
X81542976Y-83285714D01*
X84435714Y-82612704D02*
X84511904Y-82612704D01*
X84588095Y-82650800D01*
X84626190Y-82688895D01*
X84664285Y-82765085D01*
X84702380Y-82917466D01*
X84702380Y-83107942D01*
X84664285Y-83260323D01*
X84626190Y-83336514D01*
X84588095Y-83374609D01*
X84511904Y-83412704D01*
X84435714Y-83412704D01*
X84359523Y-83374609D01*
X84321428Y-83336514D01*
X84283333Y-83260323D01*
X84245238Y-83107942D01*
X84245238Y-82917466D01*
X84283333Y-82765085D01*
X84321428Y-82688895D01*
X84359523Y-82650800D01*
X84435714Y-82612704D01*
X85045238Y-83336514D02*
X85083333Y-83374609D01*
X85045238Y-83412704D01*
X85007142Y-83374609D01*
X85045238Y-83336514D01*
X85045238Y-83412704D01*
X85845238Y-83412704D02*
X85388095Y-83412704D01*
X85616666Y-83412704D02*
X85616666Y-82612704D01*
X85540476Y-82726990D01*
X85464285Y-82803180D01*
X85388095Y-82841276D01*
X86530952Y-82879371D02*
X86530952Y-83412704D01*
X86188095Y-82879371D02*
X86188095Y-83298419D01*
X86226190Y-83374609D01*
X86302380Y-83412704D01*
X86416666Y-83412704D01*
X86492857Y-83374609D01*
X86530952Y-83336514D01*
X87178571Y-82993657D02*
X86911904Y-82993657D01*
X86911904Y-83412704D02*
X86911904Y-82612704D01*
X87292857Y-82612704D01*
X118495119Y-99905714D02*
X118457023Y-99943809D01*
X118342738Y-99981904D01*
X118266547Y-99981904D01*
X118152261Y-99943809D01*
X118076071Y-99867619D01*
X118037976Y-99791428D01*
X117999880Y-99639047D01*
X117999880Y-99524761D01*
X118037976Y-99372380D01*
X118076071Y-99296190D01*
X118152261Y-99220000D01*
X118266547Y-99181904D01*
X118342738Y-99181904D01*
X118457023Y-99220000D01*
X118495119Y-99258095D01*
X118799880Y-99258095D02*
X118837976Y-99220000D01*
X118914166Y-99181904D01*
X119104642Y-99181904D01*
X119180833Y-99220000D01*
X119218928Y-99258095D01*
X119257023Y-99334285D01*
X119257023Y-99410476D01*
X119218928Y-99524761D01*
X118761785Y-99981904D01*
X119257023Y-99981904D01*
X112935714Y-99181904D02*
X113011904Y-99181904D01*
X113088095Y-99220000D01*
X113126190Y-99258095D01*
X113164285Y-99334285D01*
X113202380Y-99486666D01*
X113202380Y-99677142D01*
X113164285Y-99829523D01*
X113126190Y-99905714D01*
X113088095Y-99943809D01*
X113011904Y-99981904D01*
X112935714Y-99981904D01*
X112859523Y-99943809D01*
X112821428Y-99905714D01*
X112783333Y-99829523D01*
X112745238Y-99677142D01*
X112745238Y-99486666D01*
X112783333Y-99334285D01*
X112821428Y-99258095D01*
X112859523Y-99220000D01*
X112935714Y-99181904D01*
X113545238Y-99905714D02*
X113583333Y-99943809D01*
X113545238Y-99981904D01*
X113507142Y-99943809D01*
X113545238Y-99905714D01*
X113545238Y-99981904D01*
X114345238Y-99981904D02*
X113888095Y-99981904D01*
X114116666Y-99981904D02*
X114116666Y-99181904D01*
X114040476Y-99296190D01*
X113964285Y-99372380D01*
X113888095Y-99410476D01*
X115030952Y-99448571D02*
X115030952Y-99981904D01*
X114688095Y-99448571D02*
X114688095Y-99867619D01*
X114726190Y-99943809D01*
X114802380Y-99981904D01*
X114916666Y-99981904D01*
X114992857Y-99943809D01*
X115030952Y-99905714D01*
X115678571Y-99562857D02*
X115411904Y-99562857D01*
X115411904Y-99981904D02*
X115411904Y-99181904D01*
X115792857Y-99181904D01*
M02*
