M48
; DRILL file {KiCad (5.1.8)-1} date 12/25/20 19:21:07
; FORMAT={-:-/ absolute / inch / decimal}
; #@! TF.CreationDate,2020-12-25T19:21:07-06:00
; #@! TF.GenerationSoftware,Kicad,Pcbnew,(5.1.8)-1
FMAT,2
INCH
T1C0.0118
T2C0.0276
T3C0.0300
T4C0.0315
T5C0.0354
T6C0.0394
T7C0.0433
T8C0.0591
T9C0.0689
T10C0.1260
%
G90
G05
T1
X3.108Y-2.9754
X3.108Y-3.3219
X3.108Y-3.6683
X3.108Y-4.0148
X3.108Y-4.3612
X3.108Y-4.7077
X3.1725Y-3.6825
X3.2655Y-4.8967
X3.297Y-2.8179
X3.297Y-3.1644
X3.297Y-4.1722
X3.3285Y-3.5423
X3.3285Y-4.4872
X3.3915Y-3.8573
X3.4544Y-5.0541
X3.4859Y-4.6762
X3.5489Y-2.9754
X3.5489Y-4.3297
X3.5804Y-3.2904
X3.605Y-3.6425
X3.6119Y-3.7313
X3.6749Y-4.0148
X3.6749Y-4.8337
X3.7379Y-2.8179
X3.7379Y-4.5502
X3.7694Y-3.1329
X3.8009Y-3.5738
X3.8009Y-4.2352
X3.8009Y-5.0541
X3.8975Y-3.8675
X3.9269Y-4.7077
X3.9584Y-2.9439
X3.9584Y-3.2904
X3.9584Y-3.9203
X3.9899Y-4.3927
X4.0844Y-4.1407
X4.1159Y-4.9281
X4.1474Y-3.1014
X4.1474Y-3.7313
X4.1474Y-4.5817
X4.2104Y-2.8179
X4.2733Y-3.3848
X4.2733Y-3.9518
X4.2733Y-4.3297
X4.3363Y-5.0541
X4.3678Y-4.7077
X4.3993Y-2.9754
X4.4308Y-3.5738
X4.4623Y-4.1722
X4.4938Y-3.2274
X4.5253Y-3.8258
X4.5253Y-4.4557
X4.5568Y-4.9281
X4.5883Y-2.8179
X4.6828Y-3.3848
X4.6828Y-4.0148
X4.6828Y-4.6447
X4.7143Y-3.0384
X4.7458Y-3.6683
X4.7458Y-4.2982
T2
X3.276Y-4.4291
X3.476Y-4.4291
X4.398Y-4.4291
X4.598Y-4.4291
X4.001Y-4.2913
X4.001Y-4.4913
X3.873Y-4.2913
X3.873Y-4.4913
T3
X3.737Y-3.4894
X3.737Y-4.0894
X3.837Y-3.4894
X3.837Y-4.0894
X3.937Y-3.4894
X3.937Y-4.0894
X4.037Y-3.4894
X4.037Y-4.0894
X4.137Y-3.4894
X4.137Y-4.0894
T4
X4.1929Y-4.2913
X4.1929Y-4.3913
X4.1929Y-4.4913
X4.0748Y-4.6457
X4.2717Y-4.6457
X3.6811Y-4.2913
X3.6811Y-4.3913
X3.6811Y-4.4913
X3.2776Y-3.2677
X3.4744Y-3.2677
X3.2776Y-4.2913
X3.4744Y-4.2913
X4.348Y-3.4449
X4.348Y-3.5449
X4.348Y-3.6449
X4.348Y-3.7449
X4.648Y-3.4449
X4.648Y-3.5449
X4.648Y-3.6449
X4.648Y-3.7449
X3.226Y-3.4449
X3.226Y-3.5449
X3.226Y-3.6449
X3.226Y-3.7449
X3.226Y-3.8449
X3.226Y-3.9449
X3.226Y-4.0449
X3.226Y-4.1449
X3.526Y-3.4449
X3.526Y-3.5449
X3.526Y-3.6449
X3.526Y-3.7449
X3.526Y-3.8449
X3.526Y-3.9449
X3.526Y-4.0449
X3.526Y-4.1449
X4.3996Y-3.922
X4.5965Y-3.922
X4.3996Y-3.2677
X4.5965Y-3.2677
X4.1732Y-2.8937
X4.252Y-2.8937
X4.3307Y-2.8937
X3.6024Y-4.6457
X3.7992Y-4.6457
T5
X3.3268Y-4.6244
X3.3268Y-4.7244
X4.5472Y-4.6244
X4.5472Y-4.7244
T6
X4.3996Y-4.1732
X4.5965Y-4.0748
X4.5965Y-4.2717
T7
X3.5039Y-2.8937
X3.8039Y-2.8937
X4.0453Y-4.8031
X4.0453Y-4.9803
X4.3012Y-4.8031
X4.3012Y-4.9803
X3.5728Y-4.8031
X3.5728Y-4.9803
X3.8287Y-4.8031
X3.8287Y-4.9803
T8
X4.0906Y-2.8937
X4.4134Y-2.8937
X3.5039Y-3.1102
X4.3701Y-3.1102
T9
X3.2283Y-3.1102
X4.6457Y-3.1102
T10
X3.189Y-2.8937
X4.685Y-4.9803
X4.685Y-2.8937
X3.189Y-4.9803
T0
M30
