M48
; DRILL file {KiCad (5.1.8)-1} date 12/28/20 19:23:07
; FORMAT={-:-/ absolute / inch / decimal}
; #@! TF.CreationDate,2020-12-28T19:23:07-06:00
; #@! TF.GenerationSoftware,Kicad,Pcbnew,(5.1.8)-1
FMAT,2
INCH
T1C0.0118
T2C0.0276
T3C0.0300
T4C0.0315
T5C0.0354
T6C0.0394
T7C0.0433
T8C0.0591
T9C0.0689
T10C0.1260
%
G90
G05
T1
X3.108Y-2.9754
X3.108Y-3.3219
X3.108Y-4.4242
X3.108Y-4.7707
X3.1594Y-3.5039
X3.1594Y-3.7303
X3.171Y-3.6683
X3.176Y-3.856
X3.2655Y-4.2037
X3.2655Y-5.0541
X3.297Y-2.8179
X3.297Y-3.1644
X3.3285Y-4.5817
X3.36Y-3.5108
X3.376Y-3.435
X3.3915Y-3.9833
X3.4252Y-3.6122
X3.4252Y-3.7008
X3.4859Y-4.7707
X3.5489Y-2.9754
X3.5489Y-4.2667
X3.5804Y-3.2904
X3.6119Y-3.7313
X3.6119Y-5.0541
X3.622Y-3.622
X3.6749Y-4.5817
X3.7064Y-4.0148
X3.7379Y-2.8179
X3.7694Y-3.1329
X3.8009Y-3.5738
X3.8324Y-4.3927
X3.8954Y-4.7077
X3.9175Y-3.8475
X3.9269Y-5.0226
X3.937Y-4.2913
X3.9584Y-2.9439
X3.9584Y-3.2904
X3.9584Y-3.9203
X4.0214Y-4.2037
X4.0844Y-4.5187
X4.1159Y-4.8337
X4.1474Y-3.1014
X4.1474Y-3.7313
X4.2104Y-2.8179
X4.2104Y-4.0148
X4.2419Y-3.3848
X4.2419Y-5.0541
X4.3363Y-4.2352
X4.3363Y-4.6132
X4.3993Y-2.9754
X4.3993Y-3.5738
X4.4308Y-4.8967
X4.4623Y-3.2589
X4.4938Y-3.8258
X4.5253Y-4.3927
X4.5883Y-2.8179
X4.5883Y-4.1093
X4.5883Y-4.7077
X4.7143Y-3.0384
X4.7143Y-3.3848
X4.7458Y-3.6998
X4.7458Y-4.5187
X4.7773Y-4.8652
T2
X3.276Y-4.5189
X3.476Y-4.5189
X3.873Y-4.2913
X3.873Y-4.4913
X3.275Y-4.2827
X3.475Y-4.2827
X4.001Y-4.2913
X4.001Y-4.4913
X4.398Y-4.5189
X4.598Y-4.5189
T3
X3.737Y-3.4894
X3.737Y-4.0894
X3.837Y-3.4894
X3.837Y-4.0894
X3.937Y-3.4894
X3.937Y-4.0894
X4.037Y-3.4894
X4.037Y-4.0894
X4.137Y-3.4894
X4.137Y-4.0894
T4
X3.2776Y-3.2677
X3.4744Y-3.2677
X4.348Y-3.4252
X4.348Y-3.5252
X4.348Y-3.6252
X4.348Y-3.7252
X4.648Y-3.4252
X4.648Y-3.5252
X4.648Y-3.6252
X4.648Y-3.7252
X4.3996Y-4.4008
X4.5965Y-4.4008
X3.226Y-3.4252
X3.226Y-3.5252
X3.226Y-3.6252
X3.226Y-3.7252
X3.226Y-3.8252
X3.226Y-3.9252
X3.226Y-4.0252
X3.226Y-4.1252
X3.526Y-3.4252
X3.526Y-3.5252
X3.526Y-3.6252
X3.526Y-3.7252
X3.526Y-3.8252
X3.526Y-3.9252
X3.526Y-4.0252
X3.526Y-4.1252
X3.6811Y-4.2913
X3.6811Y-4.3913
X3.6811Y-4.4913
X4.3996Y-3.8827
X4.5965Y-3.8827
X4.0748Y-4.626
X4.2717Y-4.626
X3.2776Y-4.4008
X3.4744Y-4.4008
X4.3996Y-3.2677
X4.5965Y-3.2677
X3.6024Y-4.626
X3.7992Y-4.626
X4.1929Y-4.2913
X4.1929Y-4.3913
X4.1929Y-4.4913
X4.1732Y-2.8937
X4.252Y-2.8937
X4.3307Y-2.8937
T5
X4.498Y-4.6654
X4.498Y-4.7654
X3.376Y-4.6654
X3.376Y-4.7654
T6
X4.3996Y-4.1417
X4.5965Y-4.0433
X4.5965Y-4.2402
T7
X3.5039Y-2.8937
X3.8039Y-2.8937
X3.5728Y-4.8031
X3.5728Y-4.9803
X3.8287Y-4.8031
X3.8287Y-4.9803
X4.0453Y-4.8031
X4.0453Y-4.9803
X4.3012Y-4.8031
X4.3012Y-4.9803
T8
X4.3701Y-3.1102
X4.0906Y-2.8937
X4.4134Y-2.8937
X3.5039Y-3.1102
T9
X4.6457Y-3.1102
X3.2283Y-3.1102
T10
X4.685Y-4.9803
X3.189Y-4.9803
X3.189Y-2.8937
X4.685Y-2.8937
T0
M30
