%TF.GenerationSoftware,KiCad,Pcbnew,(5.1.8)-1*%
%TF.CreationDate,2020-12-28T19:23:03-06:00*%
%TF.ProjectId,Reaction Time Game,52656163-7469-46f6-9e20-54696d652047,rev?*%
%TF.SameCoordinates,Original*%
%TF.FileFunction,Legend,Bot*%
%TF.FilePolarity,Positive*%
%FSLAX46Y46*%
G04 Gerber Fmt 4.6, Leading zero omitted, Abs format (unit mm)*
G04 Created by KiCad (PCBNEW (5.1.8)-1) date 2020-12-28 19:23:03*
%MOMM*%
%LPD*%
G01*
G04 APERTURE LIST*
%ADD10C,0.150000*%
%TA.AperFunction,Profile*%
%ADD11C,0.254000*%
%TD*%
%ADD12C,0.010000*%
G04 APERTURE END LIST*
D10*
X104095238Y-101452380D02*
X104666666Y-101452380D01*
X104380952Y-101452380D02*
X104380952Y-100452380D01*
X104476190Y-100595238D01*
X104571428Y-100690476D01*
X104666666Y-100738095D01*
X103714285Y-100547619D02*
X103666666Y-100500000D01*
X103571428Y-100452380D01*
X103333333Y-100452380D01*
X103238095Y-100500000D01*
X103190476Y-100547619D01*
X103142857Y-100642857D01*
X103142857Y-100738095D01*
X103190476Y-100880952D01*
X103761904Y-101452380D01*
X103142857Y-101452380D01*
X102000000Y-100404761D02*
X102857142Y-101690476D01*
X101714285Y-100547619D02*
X101666666Y-100500000D01*
X101571428Y-100452380D01*
X101333333Y-100452380D01*
X101238095Y-100500000D01*
X101190476Y-100547619D01*
X101142857Y-100642857D01*
X101142857Y-100738095D01*
X101190476Y-100880952D01*
X101761904Y-101452380D01*
X101142857Y-101452380D01*
X100238095Y-100452380D02*
X100714285Y-100452380D01*
X100761904Y-100928571D01*
X100714285Y-100880952D01*
X100619047Y-100833333D01*
X100380952Y-100833333D01*
X100285714Y-100880952D01*
X100238095Y-100928571D01*
X100190476Y-101023809D01*
X100190476Y-101261904D01*
X100238095Y-101357142D01*
X100285714Y-101404761D01*
X100380952Y-101452380D01*
X100619047Y-101452380D01*
X100714285Y-101404761D01*
X100761904Y-101357142D01*
X99047619Y-100404761D02*
X99904761Y-101690476D01*
X98761904Y-100547619D02*
X98714285Y-100500000D01*
X98619047Y-100452380D01*
X98380952Y-100452380D01*
X98285714Y-100500000D01*
X98238095Y-100547619D01*
X98190476Y-100642857D01*
X98190476Y-100738095D01*
X98238095Y-100880952D01*
X98809523Y-101452380D01*
X98190476Y-101452380D01*
X97571428Y-100452380D02*
X97476190Y-100452380D01*
X97380952Y-100500000D01*
X97333333Y-100547619D01*
X97285714Y-100642857D01*
X97238095Y-100833333D01*
X97238095Y-101071428D01*
X97285714Y-101261904D01*
X97333333Y-101357142D01*
X97380952Y-101404761D01*
X97476190Y-101452380D01*
X97571428Y-101452380D01*
X97666666Y-101404761D01*
X97714285Y-101357142D01*
X97761904Y-101261904D01*
X97809523Y-101071428D01*
X97809523Y-100833333D01*
X97761904Y-100642857D01*
X97714285Y-100547619D01*
X97666666Y-100500000D01*
X97571428Y-100452380D01*
X96857142Y-100547619D02*
X96809523Y-100500000D01*
X96714285Y-100452380D01*
X96476190Y-100452380D01*
X96380952Y-100500000D01*
X96333333Y-100547619D01*
X96285714Y-100642857D01*
X96285714Y-100738095D01*
X96333333Y-100880952D01*
X96904761Y-101452380D01*
X96285714Y-101452380D01*
X95666666Y-100452380D02*
X95571428Y-100452380D01*
X95476190Y-100500000D01*
X95428571Y-100547619D01*
X95380952Y-100642857D01*
X95333333Y-100833333D01*
X95333333Y-101071428D01*
X95380952Y-101261904D01*
X95428571Y-101357142D01*
X95476190Y-101404761D01*
X95571428Y-101452380D01*
X95666666Y-101452380D01*
X95761904Y-101404761D01*
X95809523Y-101357142D01*
X95857142Y-101261904D01*
X95904761Y-101071428D01*
X95904761Y-100833333D01*
X95857142Y-100642857D01*
X95809523Y-100547619D01*
X95761904Y-100500000D01*
X95666666Y-100452380D01*
D11*
X122500000Y-73500000D02*
X122500000Y-126500000D01*
X77500000Y-126500000D02*
X77500000Y-73500000D01*
X81000000Y-130000000D02*
X119000000Y-130000000D01*
X81000000Y-70000000D02*
X119000000Y-70000000D01*
X122500000Y-126500000D02*
G75*
G02*
X119000000Y-130000000I-3500000J0D01*
G01*
X81000000Y-130000000D02*
G75*
G02*
X77500000Y-126500000I0J3500000D01*
G01*
X119000000Y-70000000D02*
G75*
G02*
X122500000Y-73500000I0J-3500000D01*
G01*
X77500000Y-73500000D02*
G75*
G02*
X81000000Y-70000000I3500000J0D01*
G01*
D12*
G36*
X101439561Y-83672335D02*
G01*
X101368948Y-83692363D01*
X101297875Y-83719691D01*
X101238935Y-83749428D01*
X101204718Y-83776683D01*
X101203454Y-83778564D01*
X101179595Y-83782591D01*
X101133040Y-83759752D01*
X101121945Y-83752463D01*
X101008731Y-83692674D01*
X100892885Y-83668223D01*
X100807113Y-83670317D01*
X100676551Y-83701730D01*
X100566866Y-83764975D01*
X100481620Y-83856854D01*
X100424380Y-83974165D01*
X100410319Y-84026573D01*
X100404088Y-84078217D01*
X100399293Y-84166797D01*
X100395977Y-84290199D01*
X100394181Y-84446306D01*
X100393947Y-84633002D01*
X100394910Y-84802552D01*
X100396581Y-84984940D01*
X100398395Y-85132213D01*
X100400567Y-85248335D01*
X100403316Y-85337266D01*
X100406857Y-85402970D01*
X100411408Y-85449408D01*
X100417186Y-85480543D01*
X100424407Y-85500338D01*
X100433288Y-85512754D01*
X100433801Y-85513273D01*
X100479578Y-85538000D01*
X100538568Y-85545701D01*
X100592044Y-85535373D01*
X100611228Y-85522772D01*
X100618026Y-85504483D01*
X100623942Y-85462492D01*
X100629088Y-85394321D01*
X100633573Y-85297491D01*
X100637507Y-85169523D01*
X100640999Y-85007938D01*
X100644160Y-84810256D01*
X100644769Y-84765656D01*
X100654539Y-84032282D01*
X100718347Y-83975295D01*
X100792867Y-83930345D01*
X100871134Y-83919075D01*
X100944404Y-83940022D01*
X101003935Y-83991726D01*
X101024828Y-84026544D01*
X101033022Y-84048926D01*
X101039636Y-84080635D01*
X101044829Y-84125646D01*
X101048759Y-84187939D01*
X101051586Y-84271491D01*
X101053467Y-84380280D01*
X101054562Y-84518282D01*
X101055029Y-84689476D01*
X101055077Y-84784419D01*
X101055077Y-85478548D01*
X101106558Y-85519043D01*
X101160577Y-85552493D01*
X101204828Y-85553224D01*
X101251807Y-85520633D01*
X101261119Y-85511580D01*
X101309077Y-85463622D01*
X101309077Y-84768148D01*
X101309245Y-84573218D01*
X101310078Y-84413559D01*
X101312067Y-84285366D01*
X101315705Y-84184833D01*
X101321484Y-84108154D01*
X101329896Y-84051525D01*
X101341435Y-84011140D01*
X101356591Y-83983193D01*
X101375857Y-83963880D01*
X101399726Y-83949394D01*
X101415993Y-83941650D01*
X101503942Y-83919579D01*
X101585591Y-83934244D01*
X101635257Y-83965435D01*
X101690077Y-84012563D01*
X101699846Y-84746304D01*
X101702620Y-84939426D01*
X101705417Y-85097073D01*
X101708421Y-85222844D01*
X101711819Y-85320343D01*
X101715794Y-85393168D01*
X101720531Y-85444923D01*
X101726215Y-85479207D01*
X101733031Y-85499621D01*
X101738923Y-85507926D01*
X101801698Y-85544620D01*
X101869883Y-85544068D01*
X101895231Y-85534116D01*
X101944077Y-85509548D01*
X101949191Y-84752677D01*
X101950401Y-84559903D01*
X101951065Y-84402217D01*
X101951027Y-84275630D01*
X101950131Y-84176157D01*
X101948221Y-84099809D01*
X101945142Y-84042599D01*
X101940737Y-84000540D01*
X101934849Y-83969644D01*
X101927323Y-83945924D01*
X101918004Y-83925392D01*
X101916711Y-83922864D01*
X101840472Y-83815046D01*
X101739492Y-83733121D01*
X101620912Y-83681487D01*
X101497121Y-83664498D01*
X101439561Y-83672335D01*
G37*
X101439561Y-83672335D02*
X101368948Y-83692363D01*
X101297875Y-83719691D01*
X101238935Y-83749428D01*
X101204718Y-83776683D01*
X101203454Y-83778564D01*
X101179595Y-83782591D01*
X101133040Y-83759752D01*
X101121945Y-83752463D01*
X101008731Y-83692674D01*
X100892885Y-83668223D01*
X100807113Y-83670317D01*
X100676551Y-83701730D01*
X100566866Y-83764975D01*
X100481620Y-83856854D01*
X100424380Y-83974165D01*
X100410319Y-84026573D01*
X100404088Y-84078217D01*
X100399293Y-84166797D01*
X100395977Y-84290199D01*
X100394181Y-84446306D01*
X100393947Y-84633002D01*
X100394910Y-84802552D01*
X100396581Y-84984940D01*
X100398395Y-85132213D01*
X100400567Y-85248335D01*
X100403316Y-85337266D01*
X100406857Y-85402970D01*
X100411408Y-85449408D01*
X100417186Y-85480543D01*
X100424407Y-85500338D01*
X100433288Y-85512754D01*
X100433801Y-85513273D01*
X100479578Y-85538000D01*
X100538568Y-85545701D01*
X100592044Y-85535373D01*
X100611228Y-85522772D01*
X100618026Y-85504483D01*
X100623942Y-85462492D01*
X100629088Y-85394321D01*
X100633573Y-85297491D01*
X100637507Y-85169523D01*
X100640999Y-85007938D01*
X100644160Y-84810256D01*
X100644769Y-84765656D01*
X100654539Y-84032282D01*
X100718347Y-83975295D01*
X100792867Y-83930345D01*
X100871134Y-83919075D01*
X100944404Y-83940022D01*
X101003935Y-83991726D01*
X101024828Y-84026544D01*
X101033022Y-84048926D01*
X101039636Y-84080635D01*
X101044829Y-84125646D01*
X101048759Y-84187939D01*
X101051586Y-84271491D01*
X101053467Y-84380280D01*
X101054562Y-84518282D01*
X101055029Y-84689476D01*
X101055077Y-84784419D01*
X101055077Y-85478548D01*
X101106558Y-85519043D01*
X101160577Y-85552493D01*
X101204828Y-85553224D01*
X101251807Y-85520633D01*
X101261119Y-85511580D01*
X101309077Y-85463622D01*
X101309077Y-84768148D01*
X101309245Y-84573218D01*
X101310078Y-84413559D01*
X101312067Y-84285366D01*
X101315705Y-84184833D01*
X101321484Y-84108154D01*
X101329896Y-84051525D01*
X101341435Y-84011140D01*
X101356591Y-83983193D01*
X101375857Y-83963880D01*
X101399726Y-83949394D01*
X101415993Y-83941650D01*
X101503942Y-83919579D01*
X101585591Y-83934244D01*
X101635257Y-83965435D01*
X101690077Y-84012563D01*
X101699846Y-84746304D01*
X101702620Y-84939426D01*
X101705417Y-85097073D01*
X101708421Y-85222844D01*
X101711819Y-85320343D01*
X101715794Y-85393168D01*
X101720531Y-85444923D01*
X101726215Y-85479207D01*
X101733031Y-85499621D01*
X101738923Y-85507926D01*
X101801698Y-85544620D01*
X101869883Y-85544068D01*
X101895231Y-85534116D01*
X101944077Y-85509548D01*
X101949191Y-84752677D01*
X101950401Y-84559903D01*
X101951065Y-84402217D01*
X101951027Y-84275630D01*
X101950131Y-84176157D01*
X101948221Y-84099809D01*
X101945142Y-84042599D01*
X101940737Y-84000540D01*
X101934849Y-83969644D01*
X101927323Y-83945924D01*
X101918004Y-83925392D01*
X101916711Y-83922864D01*
X101840472Y-83815046D01*
X101739492Y-83733121D01*
X101620912Y-83681487D01*
X101497121Y-83664498D01*
X101439561Y-83672335D01*
G36*
X99928977Y-83687142D02*
G01*
X99915105Y-83700038D01*
X99903074Y-83718533D01*
X99894375Y-83747265D01*
X99888501Y-83792069D01*
X99884948Y-83858782D01*
X99883206Y-83953240D01*
X99882769Y-84072554D01*
X99881601Y-84194053D01*
X99878321Y-84298739D01*
X99873266Y-84380381D01*
X99866772Y-84432748D01*
X99862544Y-84447130D01*
X99827386Y-84477620D01*
X99794488Y-84484923D01*
X99775554Y-84482767D01*
X99757529Y-84473659D01*
X99738165Y-84453636D01*
X99715214Y-84418736D01*
X99686428Y-84364998D01*
X99649561Y-84288460D01*
X99602364Y-84185159D01*
X99542589Y-84051133D01*
X99521914Y-84004445D01*
X99476348Y-83904355D01*
X99433714Y-83816000D01*
X99397417Y-83746048D01*
X99370862Y-83701164D01*
X99360631Y-83688731D01*
X99305648Y-83667811D01*
X99246516Y-83675070D01*
X99195321Y-83705025D01*
X99164149Y-83752189D01*
X99159846Y-83779837D01*
X99167696Y-83807887D01*
X99189682Y-83865747D01*
X99223463Y-83947794D01*
X99266696Y-84048408D01*
X99317039Y-84161966D01*
X99342585Y-84218421D01*
X99394535Y-84334473D01*
X99439480Y-84438744D01*
X99475304Y-84525996D01*
X99499890Y-84590989D01*
X99511121Y-84628481D01*
X99511033Y-84635315D01*
X99495869Y-84661126D01*
X99468797Y-84716069D01*
X99432670Y-84793601D01*
X99390340Y-84887176D01*
X99344659Y-84990254D01*
X99298481Y-85096289D01*
X99254657Y-85198738D01*
X99216041Y-85291059D01*
X99185485Y-85366707D01*
X99165841Y-85419140D01*
X99159846Y-85440892D01*
X99175290Y-85478346D01*
X99212291Y-85519100D01*
X99256852Y-85550236D01*
X99288392Y-85559538D01*
X99320021Y-85549668D01*
X99355041Y-85518003D01*
X99395399Y-85461458D01*
X99443043Y-85376951D01*
X99499923Y-85261397D01*
X99560004Y-85129692D01*
X99624175Y-84987375D01*
X99675849Y-84878350D01*
X99717320Y-84799738D01*
X99750880Y-84748661D01*
X99778824Y-84722242D01*
X99803444Y-84717601D01*
X99827034Y-84731862D01*
X99851888Y-84762145D01*
X99852354Y-84762809D01*
X99863953Y-84786434D01*
X99872312Y-84822971D01*
X99877895Y-84878193D01*
X99881169Y-84957875D01*
X99882600Y-85067791D01*
X99882769Y-85140074D01*
X99883453Y-85272481D01*
X99886277Y-85371188D01*
X99892402Y-85441561D01*
X99902990Y-85488965D01*
X99919202Y-85518764D01*
X99942198Y-85536325D01*
X99970692Y-85546376D01*
X100020465Y-85547616D01*
X100052454Y-85539681D01*
X100096025Y-85509395D01*
X100115954Y-85483771D01*
X100121892Y-85452260D01*
X100126842Y-85381900D01*
X100130801Y-85272906D01*
X100133762Y-85125493D01*
X100135721Y-84939876D01*
X100136672Y-84716271D01*
X100136769Y-84606073D01*
X100136718Y-84403032D01*
X100136454Y-84235409D01*
X100135810Y-84099543D01*
X100134619Y-83991775D01*
X100132717Y-83908445D01*
X100129935Y-83845894D01*
X100126107Y-83800461D01*
X100121067Y-83768488D01*
X100114649Y-83746315D01*
X100106686Y-83730282D01*
X100097012Y-83716728D01*
X100096274Y-83715789D01*
X100044343Y-83675113D01*
X99984444Y-83665205D01*
X99928977Y-83687142D01*
G37*
X99928977Y-83687142D02*
X99915105Y-83700038D01*
X99903074Y-83718533D01*
X99894375Y-83747265D01*
X99888501Y-83792069D01*
X99884948Y-83858782D01*
X99883206Y-83953240D01*
X99882769Y-84072554D01*
X99881601Y-84194053D01*
X99878321Y-84298739D01*
X99873266Y-84380381D01*
X99866772Y-84432748D01*
X99862544Y-84447130D01*
X99827386Y-84477620D01*
X99794488Y-84484923D01*
X99775554Y-84482767D01*
X99757529Y-84473659D01*
X99738165Y-84453636D01*
X99715214Y-84418736D01*
X99686428Y-84364998D01*
X99649561Y-84288460D01*
X99602364Y-84185159D01*
X99542589Y-84051133D01*
X99521914Y-84004445D01*
X99476348Y-83904355D01*
X99433714Y-83816000D01*
X99397417Y-83746048D01*
X99370862Y-83701164D01*
X99360631Y-83688731D01*
X99305648Y-83667811D01*
X99246516Y-83675070D01*
X99195321Y-83705025D01*
X99164149Y-83752189D01*
X99159846Y-83779837D01*
X99167696Y-83807887D01*
X99189682Y-83865747D01*
X99223463Y-83947794D01*
X99266696Y-84048408D01*
X99317039Y-84161966D01*
X99342585Y-84218421D01*
X99394535Y-84334473D01*
X99439480Y-84438744D01*
X99475304Y-84525996D01*
X99499890Y-84590989D01*
X99511121Y-84628481D01*
X99511033Y-84635315D01*
X99495869Y-84661126D01*
X99468797Y-84716069D01*
X99432670Y-84793601D01*
X99390340Y-84887176D01*
X99344659Y-84990254D01*
X99298481Y-85096289D01*
X99254657Y-85198738D01*
X99216041Y-85291059D01*
X99185485Y-85366707D01*
X99165841Y-85419140D01*
X99159846Y-85440892D01*
X99175290Y-85478346D01*
X99212291Y-85519100D01*
X99256852Y-85550236D01*
X99288392Y-85559538D01*
X99320021Y-85549668D01*
X99355041Y-85518003D01*
X99395399Y-85461458D01*
X99443043Y-85376951D01*
X99499923Y-85261397D01*
X99560004Y-85129692D01*
X99624175Y-84987375D01*
X99675849Y-84878350D01*
X99717320Y-84799738D01*
X99750880Y-84748661D01*
X99778824Y-84722242D01*
X99803444Y-84717601D01*
X99827034Y-84731862D01*
X99851888Y-84762145D01*
X99852354Y-84762809D01*
X99863953Y-84786434D01*
X99872312Y-84822971D01*
X99877895Y-84878193D01*
X99881169Y-84957875D01*
X99882600Y-85067791D01*
X99882769Y-85140074D01*
X99883453Y-85272481D01*
X99886277Y-85371188D01*
X99892402Y-85441561D01*
X99902990Y-85488965D01*
X99919202Y-85518764D01*
X99942198Y-85536325D01*
X99970692Y-85546376D01*
X100020465Y-85547616D01*
X100052454Y-85539681D01*
X100096025Y-85509395D01*
X100115954Y-85483771D01*
X100121892Y-85452260D01*
X100126842Y-85381900D01*
X100130801Y-85272906D01*
X100133762Y-85125493D01*
X100135721Y-84939876D01*
X100136672Y-84716271D01*
X100136769Y-84606073D01*
X100136718Y-84403032D01*
X100136454Y-84235409D01*
X100135810Y-84099543D01*
X100134619Y-83991775D01*
X100132717Y-83908445D01*
X100129935Y-83845894D01*
X100126107Y-83800461D01*
X100121067Y-83768488D01*
X100114649Y-83746315D01*
X100106686Y-83730282D01*
X100097012Y-83716728D01*
X100096274Y-83715789D01*
X100044343Y-83675113D01*
X99984444Y-83665205D01*
X99928977Y-83687142D01*
G36*
X98332198Y-83664621D02*
G01*
X98235038Y-83665893D01*
X98165761Y-83668618D01*
X98118771Y-83673291D01*
X98088471Y-83680408D01*
X98069267Y-83690462D01*
X98058951Y-83700038D01*
X98030709Y-83757695D01*
X98032601Y-83824319D01*
X98054307Y-83870612D01*
X98068766Y-83885605D01*
X98091012Y-83896366D01*
X98127487Y-83903804D01*
X98184636Y-83908831D01*
X98268902Y-83912358D01*
X98367450Y-83914873D01*
X98652902Y-83921208D01*
X98647489Y-84198181D01*
X98642077Y-84475154D01*
X98418067Y-84484923D01*
X98321514Y-84489517D01*
X98256458Y-84494513D01*
X98215344Y-84501752D01*
X98190619Y-84513074D01*
X98174729Y-84530321D01*
X98164986Y-84546604D01*
X98146601Y-84594258D01*
X98154659Y-84639091D01*
X98159180Y-84649573D01*
X98184397Y-84687339D01*
X98223958Y-84713292D01*
X98284273Y-84729289D01*
X98371750Y-84737187D01*
X98467503Y-84738923D01*
X98651846Y-84738923D01*
X98651846Y-85010371D01*
X98651235Y-85120747D01*
X98648967Y-85198043D01*
X98644388Y-85248246D01*
X98636846Y-85277338D01*
X98625688Y-85291306D01*
X98620941Y-85293679D01*
X98590376Y-85298186D01*
X98529318Y-85301906D01*
X98446346Y-85304475D01*
X98350042Y-85305530D01*
X98340661Y-85305538D01*
X98235316Y-85306195D01*
X98161963Y-85308762D01*
X98113534Y-85314136D01*
X98082957Y-85323215D01*
X98063162Y-85336895D01*
X98058951Y-85341269D01*
X98032642Y-85393495D01*
X98028551Y-85454904D01*
X98041966Y-85494816D01*
X98069901Y-85518227D01*
X98111324Y-85538777D01*
X98152338Y-85546533D01*
X98223431Y-85552270D01*
X98315862Y-85556002D01*
X98420890Y-85557740D01*
X98529774Y-85557497D01*
X98633772Y-85555284D01*
X98724143Y-85551114D01*
X98792148Y-85544999D01*
X98827141Y-85537788D01*
X98869266Y-85514764D01*
X98890342Y-85495065D01*
X98893442Y-85471201D01*
X98896337Y-85412320D01*
X98898958Y-85322480D01*
X98901236Y-85205739D01*
X98903102Y-85066158D01*
X98904488Y-84907793D01*
X98905324Y-84734706D01*
X98905547Y-84600297D01*
X98905541Y-84392524D01*
X98905277Y-84220334D01*
X98904616Y-84080233D01*
X98903423Y-83968727D01*
X98901559Y-83882321D01*
X98898889Y-83817522D01*
X98895275Y-83770836D01*
X98890581Y-83738769D01*
X98884668Y-83717826D01*
X98877401Y-83704515D01*
X98870116Y-83696643D01*
X98852575Y-83685150D01*
X98825341Y-83676686D01*
X98782889Y-83670812D01*
X98719696Y-83667089D01*
X98630237Y-83665080D01*
X98508990Y-83664345D01*
X98462836Y-83664308D01*
X98332198Y-83664621D01*
G37*
X98332198Y-83664621D02*
X98235038Y-83665893D01*
X98165761Y-83668618D01*
X98118771Y-83673291D01*
X98088471Y-83680408D01*
X98069267Y-83690462D01*
X98058951Y-83700038D01*
X98030709Y-83757695D01*
X98032601Y-83824319D01*
X98054307Y-83870612D01*
X98068766Y-83885605D01*
X98091012Y-83896366D01*
X98127487Y-83903804D01*
X98184636Y-83908831D01*
X98268902Y-83912358D01*
X98367450Y-83914873D01*
X98652902Y-83921208D01*
X98647489Y-84198181D01*
X98642077Y-84475154D01*
X98418067Y-84484923D01*
X98321514Y-84489517D01*
X98256458Y-84494513D01*
X98215344Y-84501752D01*
X98190619Y-84513074D01*
X98174729Y-84530321D01*
X98164986Y-84546604D01*
X98146601Y-84594258D01*
X98154659Y-84639091D01*
X98159180Y-84649573D01*
X98184397Y-84687339D01*
X98223958Y-84713292D01*
X98284273Y-84729289D01*
X98371750Y-84737187D01*
X98467503Y-84738923D01*
X98651846Y-84738923D01*
X98651846Y-85010371D01*
X98651235Y-85120747D01*
X98648967Y-85198043D01*
X98644388Y-85248246D01*
X98636846Y-85277338D01*
X98625688Y-85291306D01*
X98620941Y-85293679D01*
X98590376Y-85298186D01*
X98529318Y-85301906D01*
X98446346Y-85304475D01*
X98350042Y-85305530D01*
X98340661Y-85305538D01*
X98235316Y-85306195D01*
X98161963Y-85308762D01*
X98113534Y-85314136D01*
X98082957Y-85323215D01*
X98063162Y-85336895D01*
X98058951Y-85341269D01*
X98032642Y-85393495D01*
X98028551Y-85454904D01*
X98041966Y-85494816D01*
X98069901Y-85518227D01*
X98111324Y-85538777D01*
X98152338Y-85546533D01*
X98223431Y-85552270D01*
X98315862Y-85556002D01*
X98420890Y-85557740D01*
X98529774Y-85557497D01*
X98633772Y-85555284D01*
X98724143Y-85551114D01*
X98792148Y-85544999D01*
X98827141Y-85537788D01*
X98869266Y-85514764D01*
X98890342Y-85495065D01*
X98893442Y-85471201D01*
X98896337Y-85412320D01*
X98898958Y-85322480D01*
X98901236Y-85205739D01*
X98903102Y-85066158D01*
X98904488Y-84907793D01*
X98905324Y-84734706D01*
X98905547Y-84600297D01*
X98905541Y-84392524D01*
X98905277Y-84220334D01*
X98904616Y-84080233D01*
X98903423Y-83968727D01*
X98901559Y-83882321D01*
X98898889Y-83817522D01*
X98895275Y-83770836D01*
X98890581Y-83738769D01*
X98884668Y-83717826D01*
X98877401Y-83704515D01*
X98870116Y-83696643D01*
X98852575Y-83685150D01*
X98825341Y-83676686D01*
X98782889Y-83670812D01*
X98719696Y-83667089D01*
X98630237Y-83665080D01*
X98508990Y-83664345D01*
X98462836Y-83664308D01*
X98332198Y-83664621D01*
G36*
X102690977Y-77554685D02*
G01*
X102604789Y-77574679D01*
X102479727Y-77640221D01*
X102378945Y-77732408D01*
X102305045Y-77845370D01*
X102260628Y-77973240D01*
X102248294Y-78110150D01*
X102270645Y-78250232D01*
X102285574Y-78294839D01*
X102306880Y-78356830D01*
X102312471Y-78394923D01*
X102303457Y-78420488D01*
X102298482Y-78426933D01*
X102183664Y-78562303D01*
X102048615Y-78721331D01*
X101897511Y-78899116D01*
X101734523Y-79090756D01*
X101563827Y-79291350D01*
X101389594Y-79495999D01*
X101215998Y-79699801D01*
X101047214Y-79897854D01*
X100887413Y-80085259D01*
X100740770Y-80257114D01*
X100611459Y-80408519D01*
X100512738Y-80523957D01*
X99998102Y-81125221D01*
X98863810Y-79801034D01*
X98695620Y-79604592D01*
X98534367Y-79416071D01*
X98381913Y-79237657D01*
X98240120Y-79071536D01*
X98110848Y-78919895D01*
X97995958Y-78784921D01*
X97897313Y-78668799D01*
X97816772Y-78573717D01*
X97756198Y-78501860D01*
X97717451Y-78455416D01*
X97702584Y-78436868D01*
X97688682Y-78408443D01*
X97688567Y-78375376D01*
X97703293Y-78324956D01*
X97714364Y-78295005D01*
X97748411Y-78155090D01*
X97747641Y-78082337D01*
X97405292Y-78082337D01*
X97388992Y-78170368D01*
X97344836Y-78237138D01*
X97279946Y-78278265D01*
X97201441Y-78289364D01*
X97116443Y-78266054D01*
X97111141Y-78263388D01*
X97053065Y-78214336D01*
X97020528Y-78147337D01*
X97013001Y-78072444D01*
X97029953Y-77999708D01*
X97070854Y-77939184D01*
X97130168Y-77902580D01*
X97201458Y-77884020D01*
X97256107Y-77889802D01*
X97310190Y-77923262D01*
X97335241Y-77945120D01*
X97381115Y-77994204D01*
X97401590Y-78039891D01*
X97405292Y-78082337D01*
X97747641Y-78082337D01*
X97746943Y-78016490D01*
X97712555Y-77885066D01*
X97647844Y-77766678D01*
X97555407Y-77667187D01*
X97437839Y-77592453D01*
X97395212Y-77574679D01*
X97342013Y-77562192D01*
X97267914Y-77553343D01*
X97206000Y-77550446D01*
X97065061Y-77565856D01*
X96940661Y-77616039D01*
X96829862Y-77702327D01*
X96799454Y-77734749D01*
X96718466Y-77853544D01*
X96673259Y-77981483D01*
X96663147Y-78113676D01*
X96687440Y-78245233D01*
X96745451Y-78371262D01*
X96836492Y-78486875D01*
X96914922Y-78555540D01*
X96965766Y-78594077D01*
X96888806Y-80010615D01*
X96875997Y-80242414D01*
X96863396Y-80462889D01*
X96851206Y-80668921D01*
X96839633Y-80857394D01*
X96828880Y-81025191D01*
X96819151Y-81169194D01*
X96810651Y-81286286D01*
X96803583Y-81373350D01*
X96798153Y-81427269D01*
X96794872Y-81444843D01*
X96771843Y-81443133D01*
X96717788Y-81426435D01*
X96637055Y-81396363D01*
X96533995Y-81354531D01*
X96420450Y-81305843D01*
X96063000Y-81149154D01*
X96059747Y-81136745D01*
X95701524Y-81136745D01*
X95689677Y-81208448D01*
X95649664Y-81273585D01*
X95594077Y-81316553D01*
X95516843Y-81338197D01*
X95435634Y-81326082D01*
X95371548Y-81289207D01*
X95316951Y-81221093D01*
X95296976Y-81142223D01*
X95313418Y-81060795D01*
X95319012Y-81049106D01*
X95361084Y-80990342D01*
X95417503Y-80958663D01*
X95498615Y-80948510D01*
X95506373Y-80948461D01*
X95587629Y-80964334D01*
X95648544Y-81006478D01*
X95687161Y-81066685D01*
X95701524Y-81136745D01*
X96059747Y-81136745D01*
X96031679Y-81029684D01*
X95976959Y-80887180D01*
X95896900Y-80770391D01*
X95796021Y-80681475D01*
X95678842Y-80622589D01*
X95549884Y-80595891D01*
X95413667Y-80603538D01*
X95274712Y-80647687D01*
X95252994Y-80658049D01*
X95131939Y-80737201D01*
X95043361Y-80837754D01*
X94986861Y-80960371D01*
X94962040Y-81105715D01*
X94960754Y-81143846D01*
X94977789Y-81284107D01*
X95029145Y-81411641D01*
X95110769Y-81521093D01*
X95218607Y-81607108D01*
X95348606Y-81664330D01*
X95356431Y-81666567D01*
X95420049Y-81685836D01*
X95459939Y-81706412D01*
X95488260Y-81738787D01*
X95517172Y-81793453D01*
X95526702Y-81813492D01*
X95543666Y-81852133D01*
X95573653Y-81923520D01*
X95615214Y-82024099D01*
X95666904Y-82150317D01*
X95727276Y-82298621D01*
X95794884Y-82465457D01*
X95868280Y-82647271D01*
X95946018Y-82840509D01*
X96024491Y-83036223D01*
X96468053Y-84144293D01*
X96408059Y-84238894D01*
X96344545Y-84372408D01*
X96318038Y-84510822D01*
X96328484Y-84649014D01*
X96375829Y-84781863D01*
X96414495Y-84846384D01*
X96511376Y-84955456D01*
X96625420Y-85032452D01*
X96750948Y-85076684D01*
X96882282Y-85087461D01*
X97013743Y-85064092D01*
X97139653Y-85005887D01*
X97220987Y-84944459D01*
X97313043Y-84844133D01*
X97370468Y-84736428D01*
X97396459Y-84613380D01*
X97396945Y-84541697D01*
X97061641Y-84541697D01*
X97059133Y-84584111D01*
X97025746Y-84653517D01*
X96966629Y-84704561D01*
X96892508Y-84732948D01*
X96814112Y-84734381D01*
X96748135Y-84708663D01*
X96695058Y-84653026D01*
X96667796Y-84580184D01*
X96666993Y-84501959D01*
X96693292Y-84430173D01*
X96730669Y-84388077D01*
X96794312Y-84358397D01*
X96873591Y-84348164D01*
X96949446Y-84358849D01*
X96974477Y-84369265D01*
X97015598Y-84409530D01*
X97046790Y-84472434D01*
X97061641Y-84541697D01*
X97396945Y-84541697D01*
X97397192Y-84505315D01*
X97388352Y-84421858D01*
X97373643Y-84346907D01*
X97356320Y-84296325D01*
X97310400Y-84227845D01*
X97245931Y-84154757D01*
X97177618Y-84092982D01*
X97151054Y-84074072D01*
X97105878Y-84045308D01*
X97146209Y-83324052D01*
X97155197Y-83160361D01*
X97163171Y-83009374D01*
X97169925Y-82875433D01*
X97175254Y-82762879D01*
X97178953Y-82676055D01*
X97180816Y-82619304D01*
X97180639Y-82596966D01*
X97180561Y-82596817D01*
X97160151Y-82585958D01*
X97113333Y-82564466D01*
X97048799Y-82536040D01*
X96975242Y-82504380D01*
X96901354Y-82473187D01*
X96835830Y-82446162D01*
X96787360Y-82427003D01*
X96764638Y-82419411D01*
X96763991Y-82419497D01*
X96761661Y-82439472D01*
X96757526Y-82493368D01*
X96751917Y-82576086D01*
X96745168Y-82682530D01*
X96737612Y-82807600D01*
X96729581Y-82946200D01*
X96729420Y-82949042D01*
X96721260Y-83088072D01*
X96713356Y-83213864D01*
X96706072Y-83321277D01*
X96699775Y-83405170D01*
X96694829Y-83460402D01*
X96691599Y-83481833D01*
X96691565Y-83481871D01*
X96681407Y-83467026D01*
X96657609Y-83416937D01*
X96620662Y-83332794D01*
X96571061Y-83215784D01*
X96509299Y-83067095D01*
X96435869Y-82887914D01*
X96351266Y-82679431D01*
X96255982Y-82442833D01*
X96151546Y-82181903D01*
X96094834Y-82038897D01*
X96043534Y-81907743D01*
X95999281Y-81792765D01*
X95963712Y-81698287D01*
X95938461Y-81628632D01*
X95925164Y-81588126D01*
X95923680Y-81579499D01*
X95943672Y-81583882D01*
X95993171Y-81601773D01*
X96066002Y-81630744D01*
X96155994Y-81668367D01*
X96222532Y-81697081D01*
X96336075Y-81746699D01*
X96467827Y-81804331D01*
X96613427Y-81868064D01*
X96768516Y-81935987D01*
X96928734Y-82006187D01*
X97089719Y-82076753D01*
X97247112Y-82145771D01*
X97396553Y-82211330D01*
X97533682Y-82271518D01*
X97654138Y-82324422D01*
X97753561Y-82368132D01*
X97827592Y-82400733D01*
X97871869Y-82420315D01*
X97880077Y-82423985D01*
X97910504Y-82437469D01*
X97972552Y-82464753D01*
X98062028Y-82504003D01*
X98174742Y-82553382D01*
X98306501Y-82611055D01*
X98453115Y-82675185D01*
X98610391Y-82743936D01*
X98661616Y-82766319D01*
X98821388Y-82836143D01*
X98971821Y-82901920D01*
X99108725Y-82961812D01*
X99227907Y-83013986D01*
X99325176Y-83056606D01*
X99396342Y-83087837D01*
X99437212Y-83105845D01*
X99443154Y-83108491D01*
X99482630Y-83125923D01*
X99549335Y-83155077D01*
X99634619Y-83192183D01*
X99729835Y-83233474D01*
X99750157Y-83242270D01*
X99998546Y-83349736D01*
X100805234Y-82997953D01*
X100973954Y-82924353D01*
X101133300Y-82854795D01*
X101279345Y-82790998D01*
X101408161Y-82734679D01*
X101515821Y-82687556D01*
X101598396Y-82651346D01*
X101651960Y-82627768D01*
X101670539Y-82619496D01*
X101706837Y-82603294D01*
X101775985Y-82572742D01*
X101875027Y-82529137D01*
X102001006Y-82473776D01*
X102150963Y-82407956D01*
X102321943Y-82332975D01*
X102510988Y-82250129D01*
X102715141Y-82160715D01*
X102931445Y-82066031D01*
X103156943Y-81967373D01*
X103262923Y-81921023D01*
X103457231Y-81836148D01*
X103618713Y-81765857D01*
X103750283Y-81708934D01*
X103848687Y-81666805D01*
X102754923Y-81666805D01*
X101968500Y-82010569D01*
X101774753Y-82095310D01*
X101567342Y-82186115D01*
X101354452Y-82279394D01*
X101144268Y-82371559D01*
X100944975Y-82459021D01*
X100764758Y-82538190D01*
X100611802Y-82605477D01*
X100605692Y-82608167D01*
X100464975Y-82669845D01*
X100335236Y-82726151D01*
X100220913Y-82775202D01*
X100126447Y-82815116D01*
X100056278Y-82844009D01*
X100014845Y-82859998D01*
X100005781Y-82862616D01*
X99981331Y-82855357D01*
X99926935Y-82834759D01*
X99848433Y-82803179D01*
X99751664Y-82762972D01*
X99642469Y-82716495D01*
X99624781Y-82708870D01*
X99542345Y-82673137D01*
X99430771Y-82624573D01*
X99295191Y-82565427D01*
X99140739Y-82497947D01*
X98972545Y-82424384D01*
X98795742Y-82346985D01*
X98615462Y-82268000D01*
X98436838Y-82189678D01*
X98265000Y-82114269D01*
X98105082Y-82044020D01*
X97962216Y-81981183D01*
X97841533Y-81928004D01*
X97748166Y-81886734D01*
X97704231Y-81867214D01*
X97652622Y-81844362D01*
X97577162Y-81811145D01*
X97489817Y-81772823D01*
X97435577Y-81749085D01*
X97350250Y-81710886D01*
X97294866Y-81682859D01*
X97263129Y-81660559D01*
X97248741Y-81639542D01*
X97245406Y-81615362D01*
X97245409Y-81614863D01*
X97246589Y-81569927D01*
X97249638Y-81492095D01*
X97254354Y-81385207D01*
X97260533Y-81253101D01*
X97267971Y-81099620D01*
X97276466Y-80928601D01*
X97285814Y-80743887D01*
X97295813Y-80549315D01*
X97306257Y-80348727D01*
X97316945Y-80145962D01*
X97327673Y-79944860D01*
X97338238Y-79749262D01*
X97348436Y-79563006D01*
X97358064Y-79389934D01*
X97366919Y-79233885D01*
X97374798Y-79098698D01*
X97381496Y-78988215D01*
X97386812Y-78906275D01*
X97390541Y-78856718D01*
X97392146Y-78843192D01*
X97411450Y-78820478D01*
X97418869Y-78818769D01*
X97435067Y-78833223D01*
X97475291Y-78876650D01*
X97539621Y-78949142D01*
X97628136Y-79050795D01*
X97740919Y-79181702D01*
X97878048Y-79341959D01*
X98039604Y-79531659D01*
X98225668Y-79750896D01*
X98436321Y-79999766D01*
X98671642Y-80278362D01*
X98931711Y-80586779D01*
X99216610Y-80925111D01*
X99404077Y-81147950D01*
X99523086Y-81289218D01*
X99634404Y-81420889D01*
X99735519Y-81540024D01*
X99823916Y-81643685D01*
X99897084Y-81728932D01*
X99952510Y-81792826D01*
X99987680Y-81832429D01*
X100000000Y-81844884D01*
X100013780Y-81830284D01*
X100050829Y-81787963D01*
X100109278Y-81720120D01*
X100187259Y-81628953D01*
X100282904Y-81516662D01*
X100394346Y-81385443D01*
X100519716Y-81237497D01*
X100657145Y-81075022D01*
X100804766Y-80900215D01*
X100960710Y-80715275D01*
X101055077Y-80603235D01*
X101283475Y-80331927D01*
X101488002Y-80088972D01*
X101669984Y-79872858D01*
X101830746Y-79682068D01*
X101971615Y-79515088D01*
X102093915Y-79370403D01*
X102198973Y-79246500D01*
X102288114Y-79141863D01*
X102362665Y-79054977D01*
X102423950Y-78984328D01*
X102473295Y-78928402D01*
X102512026Y-78885683D01*
X102541470Y-78854658D01*
X102562951Y-78833811D01*
X102577795Y-78821628D01*
X102587328Y-78816595D01*
X102592877Y-78817196D01*
X102595765Y-78821917D01*
X102597320Y-78829243D01*
X102598866Y-78837661D01*
X102599217Y-78839066D01*
X102602068Y-78850723D01*
X102604774Y-78865050D01*
X102607502Y-78884707D01*
X102610417Y-78912355D01*
X102613685Y-78950656D01*
X102617473Y-79002270D01*
X102621947Y-79069860D01*
X102627271Y-79156087D01*
X102633613Y-79263611D01*
X102641138Y-79395095D01*
X102650012Y-79553199D01*
X102660401Y-79740584D01*
X102672471Y-79959913D01*
X102686389Y-80213845D01*
X102696650Y-80401384D01*
X102707689Y-80605020D01*
X102718044Y-80799560D01*
X102727517Y-80981013D01*
X102735906Y-81145385D01*
X102743014Y-81288684D01*
X102748639Y-81406917D01*
X102752582Y-81496091D01*
X102754645Y-81552215D01*
X102754908Y-81566518D01*
X102754923Y-81666805D01*
X103848687Y-81666805D01*
X103854854Y-81664165D01*
X103935342Y-81630333D01*
X103994660Y-81606223D01*
X104035721Y-81590620D01*
X104061442Y-81582307D01*
X104074734Y-81580070D01*
X104077901Y-81581080D01*
X104072408Y-81600081D01*
X104053856Y-81651170D01*
X104023889Y-81730231D01*
X103984149Y-81833148D01*
X103936280Y-81955803D01*
X103881924Y-82094079D01*
X103822724Y-82243859D01*
X103760323Y-82401026D01*
X103696365Y-82561463D01*
X103632491Y-82721054D01*
X103570346Y-82875681D01*
X103511571Y-83021228D01*
X103457810Y-83153576D01*
X103410706Y-83268610D01*
X103371902Y-83362213D01*
X103343040Y-83430267D01*
X103325763Y-83468655D01*
X103321901Y-83475529D01*
X103315592Y-83474741D01*
X103309491Y-83456601D01*
X103303318Y-83418024D01*
X103296796Y-83355925D01*
X103289644Y-83267218D01*
X103281585Y-83148818D01*
X103272339Y-82997640D01*
X103261629Y-82810599D01*
X103261294Y-82804615D01*
X103254499Y-82687102D01*
X103248103Y-82583795D01*
X103242514Y-82500708D01*
X103238138Y-82443853D01*
X103235383Y-82419243D01*
X103235169Y-82418730D01*
X103216501Y-82424121D01*
X103169274Y-82442422D01*
X103100671Y-82470742D01*
X103019740Y-82505382D01*
X102809123Y-82596921D01*
X102820802Y-82744729D01*
X102825187Y-82808855D01*
X102830781Y-82903755D01*
X102837141Y-83021160D01*
X102843823Y-83152804D01*
X102850385Y-83290417D01*
X102852287Y-83332154D01*
X102858589Y-83469032D01*
X102864940Y-83601605D01*
X102870936Y-83721832D01*
X102876172Y-83821671D01*
X102880246Y-83893083D01*
X102881237Y-83908610D01*
X102890380Y-84045451D01*
X102821149Y-84092889D01*
X102747407Y-84159448D01*
X102679446Y-84248865D01*
X102628831Y-84345352D01*
X102621253Y-84365723D01*
X102600349Y-84473013D01*
X102601334Y-84593967D01*
X102623157Y-84710614D01*
X102644836Y-84768975D01*
X102716665Y-84880568D01*
X102815603Y-84973774D01*
X102932958Y-85043009D01*
X103060039Y-85082687D01*
X103144354Y-85089977D01*
X103204627Y-85082961D01*
X103278434Y-85065879D01*
X103313557Y-85054951D01*
X103425439Y-85003331D01*
X103517235Y-84929468D01*
X103592036Y-84836615D01*
X103655473Y-84711607D01*
X103682627Y-84577549D01*
X103682314Y-84572814D01*
X103335932Y-84572814D01*
X103308989Y-84642088D01*
X103259453Y-84696320D01*
X103194975Y-84730996D01*
X103123206Y-84741602D01*
X103051796Y-84723624D01*
X103002293Y-84687887D01*
X102953996Y-84616136D01*
X102936311Y-84534616D01*
X102951810Y-84455688D01*
X102953330Y-84452393D01*
X102994501Y-84401062D01*
X103056845Y-84359969D01*
X103125288Y-84336859D01*
X103177381Y-84337236D01*
X103241795Y-84369879D01*
X103298310Y-84426023D01*
X103332033Y-84490720D01*
X103332631Y-84493009D01*
X103335932Y-84572814D01*
X103682314Y-84572814D01*
X103673500Y-84439902D01*
X103628091Y-84304124D01*
X103591945Y-84238900D01*
X103531955Y-84144305D01*
X103907519Y-83205806D01*
X104015999Y-82934839D01*
X104110970Y-82697924D01*
X104193376Y-82492810D01*
X104264159Y-82317244D01*
X104324263Y-82168973D01*
X104374631Y-82045744D01*
X104416207Y-81945304D01*
X104449933Y-81865401D01*
X104476754Y-81803782D01*
X104497612Y-81758193D01*
X104513450Y-81726382D01*
X104525212Y-81706097D01*
X104533841Y-81695084D01*
X104540280Y-81691090D01*
X104541804Y-81690923D01*
X104613882Y-81678687D01*
X104700349Y-81646242D01*
X104786974Y-81599983D01*
X104855271Y-81550104D01*
X104952326Y-81442729D01*
X105012906Y-81322443D01*
X105038286Y-81186429D01*
X105039246Y-81143846D01*
X105038831Y-81136309D01*
X104701564Y-81136309D01*
X104687625Y-81206390D01*
X104637001Y-81277028D01*
X104628682Y-81285555D01*
X104586947Y-81322015D01*
X104548117Y-81336551D01*
X104493275Y-81335372D01*
X104480956Y-81334051D01*
X104404078Y-81315231D01*
X104350004Y-81282226D01*
X104315905Y-81223242D01*
X104305025Y-81147705D01*
X104316889Y-81070133D01*
X104351021Y-81005048D01*
X104359382Y-80995891D01*
X104427557Y-80952216D01*
X104504438Y-80940982D01*
X104580218Y-80960218D01*
X104645090Y-81007950D01*
X104680280Y-81060407D01*
X104701564Y-81136309D01*
X105038831Y-81136309D01*
X105034961Y-81066092D01*
X105025186Y-80994765D01*
X105015014Y-80954634D01*
X104949413Y-80829497D01*
X104857021Y-80728631D01*
X104743591Y-80654685D01*
X104614878Y-80610303D01*
X104476637Y-80598131D01*
X104334622Y-80620816D01*
X104307514Y-80629344D01*
X104208911Y-80680143D01*
X104116031Y-80758508D01*
X104040031Y-80853310D01*
X103996692Y-80939457D01*
X103974371Y-81003617D01*
X103955942Y-81054170D01*
X103936965Y-81094519D01*
X103913003Y-81128065D01*
X103879619Y-81158212D01*
X103832375Y-81188363D01*
X103766834Y-81221921D01*
X103678557Y-81262288D01*
X103563108Y-81312868D01*
X103439325Y-81366857D01*
X103356875Y-81402447D01*
X103287679Y-81431342D01*
X103239471Y-81450377D01*
X103220403Y-81456461D01*
X103207719Y-81439462D01*
X103195968Y-81398026D01*
X103195042Y-81392961D01*
X103191860Y-81361330D01*
X103186915Y-81294769D01*
X103180435Y-81197373D01*
X103172647Y-81073240D01*
X103163779Y-80926464D01*
X103154059Y-80761142D01*
X103143715Y-80581369D01*
X103132974Y-80391243D01*
X103122064Y-80194858D01*
X103111212Y-79996311D01*
X103100647Y-79799698D01*
X103090597Y-79609114D01*
X103081287Y-79428656D01*
X103072948Y-79262421D01*
X103065805Y-79114502D01*
X103060088Y-78988998D01*
X103056284Y-78896923D01*
X103043981Y-78574538D01*
X103112639Y-78529248D01*
X103195016Y-78454775D01*
X103264445Y-78353892D01*
X103314691Y-78238685D01*
X103339517Y-78121241D01*
X103340816Y-78092319D01*
X102989385Y-78092319D01*
X102983897Y-78146781D01*
X102961727Y-78189022D01*
X102917869Y-78232744D01*
X102868091Y-78271563D01*
X102826558Y-78287252D01*
X102775724Y-78286033D01*
X102769814Y-78285270D01*
X102709930Y-78270097D01*
X102661890Y-78246100D01*
X102656450Y-78241678D01*
X102607602Y-78174677D01*
X102589888Y-78097848D01*
X102601762Y-78021164D01*
X102641679Y-77954600D01*
X102708091Y-77908130D01*
X102708149Y-77908106D01*
X102788682Y-77888455D01*
X102860272Y-77903814D01*
X102930575Y-77955899D01*
X102933273Y-77958574D01*
X102974748Y-78013279D01*
X102988993Y-78075679D01*
X102989385Y-78092319D01*
X103340816Y-78092319D01*
X103341077Y-78086518D01*
X103322772Y-77961623D01*
X103271782Y-77839477D01*
X103193998Y-77729078D01*
X103095307Y-77639427D01*
X103019437Y-77594989D01*
X102920417Y-77563796D01*
X102805167Y-77550080D01*
X102690977Y-77554685D01*
G37*
X102690977Y-77554685D02*
X102604789Y-77574679D01*
X102479727Y-77640221D01*
X102378945Y-77732408D01*
X102305045Y-77845370D01*
X102260628Y-77973240D01*
X102248294Y-78110150D01*
X102270645Y-78250232D01*
X102285574Y-78294839D01*
X102306880Y-78356830D01*
X102312471Y-78394923D01*
X102303457Y-78420488D01*
X102298482Y-78426933D01*
X102183664Y-78562303D01*
X102048615Y-78721331D01*
X101897511Y-78899116D01*
X101734523Y-79090756D01*
X101563827Y-79291350D01*
X101389594Y-79495999D01*
X101215998Y-79699801D01*
X101047214Y-79897854D01*
X100887413Y-80085259D01*
X100740770Y-80257114D01*
X100611459Y-80408519D01*
X100512738Y-80523957D01*
X99998102Y-81125221D01*
X98863810Y-79801034D01*
X98695620Y-79604592D01*
X98534367Y-79416071D01*
X98381913Y-79237657D01*
X98240120Y-79071536D01*
X98110848Y-78919895D01*
X97995958Y-78784921D01*
X97897313Y-78668799D01*
X97816772Y-78573717D01*
X97756198Y-78501860D01*
X97717451Y-78455416D01*
X97702584Y-78436868D01*
X97688682Y-78408443D01*
X97688567Y-78375376D01*
X97703293Y-78324956D01*
X97714364Y-78295005D01*
X97748411Y-78155090D01*
X97747641Y-78082337D01*
X97405292Y-78082337D01*
X97388992Y-78170368D01*
X97344836Y-78237138D01*
X97279946Y-78278265D01*
X97201441Y-78289364D01*
X97116443Y-78266054D01*
X97111141Y-78263388D01*
X97053065Y-78214336D01*
X97020528Y-78147337D01*
X97013001Y-78072444D01*
X97029953Y-77999708D01*
X97070854Y-77939184D01*
X97130168Y-77902580D01*
X97201458Y-77884020D01*
X97256107Y-77889802D01*
X97310190Y-77923262D01*
X97335241Y-77945120D01*
X97381115Y-77994204D01*
X97401590Y-78039891D01*
X97405292Y-78082337D01*
X97747641Y-78082337D01*
X97746943Y-78016490D01*
X97712555Y-77885066D01*
X97647844Y-77766678D01*
X97555407Y-77667187D01*
X97437839Y-77592453D01*
X97395212Y-77574679D01*
X97342013Y-77562192D01*
X97267914Y-77553343D01*
X97206000Y-77550446D01*
X97065061Y-77565856D01*
X96940661Y-77616039D01*
X96829862Y-77702327D01*
X96799454Y-77734749D01*
X96718466Y-77853544D01*
X96673259Y-77981483D01*
X96663147Y-78113676D01*
X96687440Y-78245233D01*
X96745451Y-78371262D01*
X96836492Y-78486875D01*
X96914922Y-78555540D01*
X96965766Y-78594077D01*
X96888806Y-80010615D01*
X96875997Y-80242414D01*
X96863396Y-80462889D01*
X96851206Y-80668921D01*
X96839633Y-80857394D01*
X96828880Y-81025191D01*
X96819151Y-81169194D01*
X96810651Y-81286286D01*
X96803583Y-81373350D01*
X96798153Y-81427269D01*
X96794872Y-81444843D01*
X96771843Y-81443133D01*
X96717788Y-81426435D01*
X96637055Y-81396363D01*
X96533995Y-81354531D01*
X96420450Y-81305843D01*
X96063000Y-81149154D01*
X96059747Y-81136745D01*
X95701524Y-81136745D01*
X95689677Y-81208448D01*
X95649664Y-81273585D01*
X95594077Y-81316553D01*
X95516843Y-81338197D01*
X95435634Y-81326082D01*
X95371548Y-81289207D01*
X95316951Y-81221093D01*
X95296976Y-81142223D01*
X95313418Y-81060795D01*
X95319012Y-81049106D01*
X95361084Y-80990342D01*
X95417503Y-80958663D01*
X95498615Y-80948510D01*
X95506373Y-80948461D01*
X95587629Y-80964334D01*
X95648544Y-81006478D01*
X95687161Y-81066685D01*
X95701524Y-81136745D01*
X96059747Y-81136745D01*
X96031679Y-81029684D01*
X95976959Y-80887180D01*
X95896900Y-80770391D01*
X95796021Y-80681475D01*
X95678842Y-80622589D01*
X95549884Y-80595891D01*
X95413667Y-80603538D01*
X95274712Y-80647687D01*
X95252994Y-80658049D01*
X95131939Y-80737201D01*
X95043361Y-80837754D01*
X94986861Y-80960371D01*
X94962040Y-81105715D01*
X94960754Y-81143846D01*
X94977789Y-81284107D01*
X95029145Y-81411641D01*
X95110769Y-81521093D01*
X95218607Y-81607108D01*
X95348606Y-81664330D01*
X95356431Y-81666567D01*
X95420049Y-81685836D01*
X95459939Y-81706412D01*
X95488260Y-81738787D01*
X95517172Y-81793453D01*
X95526702Y-81813492D01*
X95543666Y-81852133D01*
X95573653Y-81923520D01*
X95615214Y-82024099D01*
X95666904Y-82150317D01*
X95727276Y-82298621D01*
X95794884Y-82465457D01*
X95868280Y-82647271D01*
X95946018Y-82840509D01*
X96024491Y-83036223D01*
X96468053Y-84144293D01*
X96408059Y-84238894D01*
X96344545Y-84372408D01*
X96318038Y-84510822D01*
X96328484Y-84649014D01*
X96375829Y-84781863D01*
X96414495Y-84846384D01*
X96511376Y-84955456D01*
X96625420Y-85032452D01*
X96750948Y-85076684D01*
X96882282Y-85087461D01*
X97013743Y-85064092D01*
X97139653Y-85005887D01*
X97220987Y-84944459D01*
X97313043Y-84844133D01*
X97370468Y-84736428D01*
X97396459Y-84613380D01*
X97396945Y-84541697D01*
X97061641Y-84541697D01*
X97059133Y-84584111D01*
X97025746Y-84653517D01*
X96966629Y-84704561D01*
X96892508Y-84732948D01*
X96814112Y-84734381D01*
X96748135Y-84708663D01*
X96695058Y-84653026D01*
X96667796Y-84580184D01*
X96666993Y-84501959D01*
X96693292Y-84430173D01*
X96730669Y-84388077D01*
X96794312Y-84358397D01*
X96873591Y-84348164D01*
X96949446Y-84358849D01*
X96974477Y-84369265D01*
X97015598Y-84409530D01*
X97046790Y-84472434D01*
X97061641Y-84541697D01*
X97396945Y-84541697D01*
X97397192Y-84505315D01*
X97388352Y-84421858D01*
X97373643Y-84346907D01*
X97356320Y-84296325D01*
X97310400Y-84227845D01*
X97245931Y-84154757D01*
X97177618Y-84092982D01*
X97151054Y-84074072D01*
X97105878Y-84045308D01*
X97146209Y-83324052D01*
X97155197Y-83160361D01*
X97163171Y-83009374D01*
X97169925Y-82875433D01*
X97175254Y-82762879D01*
X97178953Y-82676055D01*
X97180816Y-82619304D01*
X97180639Y-82596966D01*
X97180561Y-82596817D01*
X97160151Y-82585958D01*
X97113333Y-82564466D01*
X97048799Y-82536040D01*
X96975242Y-82504380D01*
X96901354Y-82473187D01*
X96835830Y-82446162D01*
X96787360Y-82427003D01*
X96764638Y-82419411D01*
X96763991Y-82419497D01*
X96761661Y-82439472D01*
X96757526Y-82493368D01*
X96751917Y-82576086D01*
X96745168Y-82682530D01*
X96737612Y-82807600D01*
X96729581Y-82946200D01*
X96729420Y-82949042D01*
X96721260Y-83088072D01*
X96713356Y-83213864D01*
X96706072Y-83321277D01*
X96699775Y-83405170D01*
X96694829Y-83460402D01*
X96691599Y-83481833D01*
X96691565Y-83481871D01*
X96681407Y-83467026D01*
X96657609Y-83416937D01*
X96620662Y-83332794D01*
X96571061Y-83215784D01*
X96509299Y-83067095D01*
X96435869Y-82887914D01*
X96351266Y-82679431D01*
X96255982Y-82442833D01*
X96151546Y-82181903D01*
X96094834Y-82038897D01*
X96043534Y-81907743D01*
X95999281Y-81792765D01*
X95963712Y-81698287D01*
X95938461Y-81628632D01*
X95925164Y-81588126D01*
X95923680Y-81579499D01*
X95943672Y-81583882D01*
X95993171Y-81601773D01*
X96066002Y-81630744D01*
X96155994Y-81668367D01*
X96222532Y-81697081D01*
X96336075Y-81746699D01*
X96467827Y-81804331D01*
X96613427Y-81868064D01*
X96768516Y-81935987D01*
X96928734Y-82006187D01*
X97089719Y-82076753D01*
X97247112Y-82145771D01*
X97396553Y-82211330D01*
X97533682Y-82271518D01*
X97654138Y-82324422D01*
X97753561Y-82368132D01*
X97827592Y-82400733D01*
X97871869Y-82420315D01*
X97880077Y-82423985D01*
X97910504Y-82437469D01*
X97972552Y-82464753D01*
X98062028Y-82504003D01*
X98174742Y-82553382D01*
X98306501Y-82611055D01*
X98453115Y-82675185D01*
X98610391Y-82743936D01*
X98661616Y-82766319D01*
X98821388Y-82836143D01*
X98971821Y-82901920D01*
X99108725Y-82961812D01*
X99227907Y-83013986D01*
X99325176Y-83056606D01*
X99396342Y-83087837D01*
X99437212Y-83105845D01*
X99443154Y-83108491D01*
X99482630Y-83125923D01*
X99549335Y-83155077D01*
X99634619Y-83192183D01*
X99729835Y-83233474D01*
X99750157Y-83242270D01*
X99998546Y-83349736D01*
X100805234Y-82997953D01*
X100973954Y-82924353D01*
X101133300Y-82854795D01*
X101279345Y-82790998D01*
X101408161Y-82734679D01*
X101515821Y-82687556D01*
X101598396Y-82651346D01*
X101651960Y-82627768D01*
X101670539Y-82619496D01*
X101706837Y-82603294D01*
X101775985Y-82572742D01*
X101875027Y-82529137D01*
X102001006Y-82473776D01*
X102150963Y-82407956D01*
X102321943Y-82332975D01*
X102510988Y-82250129D01*
X102715141Y-82160715D01*
X102931445Y-82066031D01*
X103156943Y-81967373D01*
X103262923Y-81921023D01*
X103457231Y-81836148D01*
X103618713Y-81765857D01*
X103750283Y-81708934D01*
X103848687Y-81666805D01*
X102754923Y-81666805D01*
X101968500Y-82010569D01*
X101774753Y-82095310D01*
X101567342Y-82186115D01*
X101354452Y-82279394D01*
X101144268Y-82371559D01*
X100944975Y-82459021D01*
X100764758Y-82538190D01*
X100611802Y-82605477D01*
X100605692Y-82608167D01*
X100464975Y-82669845D01*
X100335236Y-82726151D01*
X100220913Y-82775202D01*
X100126447Y-82815116D01*
X100056278Y-82844009D01*
X100014845Y-82859998D01*
X100005781Y-82862616D01*
X99981331Y-82855357D01*
X99926935Y-82834759D01*
X99848433Y-82803179D01*
X99751664Y-82762972D01*
X99642469Y-82716495D01*
X99624781Y-82708870D01*
X99542345Y-82673137D01*
X99430771Y-82624573D01*
X99295191Y-82565427D01*
X99140739Y-82497947D01*
X98972545Y-82424384D01*
X98795742Y-82346985D01*
X98615462Y-82268000D01*
X98436838Y-82189678D01*
X98265000Y-82114269D01*
X98105082Y-82044020D01*
X97962216Y-81981183D01*
X97841533Y-81928004D01*
X97748166Y-81886734D01*
X97704231Y-81867214D01*
X97652622Y-81844362D01*
X97577162Y-81811145D01*
X97489817Y-81772823D01*
X97435577Y-81749085D01*
X97350250Y-81710886D01*
X97294866Y-81682859D01*
X97263129Y-81660559D01*
X97248741Y-81639542D01*
X97245406Y-81615362D01*
X97245409Y-81614863D01*
X97246589Y-81569927D01*
X97249638Y-81492095D01*
X97254354Y-81385207D01*
X97260533Y-81253101D01*
X97267971Y-81099620D01*
X97276466Y-80928601D01*
X97285814Y-80743887D01*
X97295813Y-80549315D01*
X97306257Y-80348727D01*
X97316945Y-80145962D01*
X97327673Y-79944860D01*
X97338238Y-79749262D01*
X97348436Y-79563006D01*
X97358064Y-79389934D01*
X97366919Y-79233885D01*
X97374798Y-79098698D01*
X97381496Y-78988215D01*
X97386812Y-78906275D01*
X97390541Y-78856718D01*
X97392146Y-78843192D01*
X97411450Y-78820478D01*
X97418869Y-78818769D01*
X97435067Y-78833223D01*
X97475291Y-78876650D01*
X97539621Y-78949142D01*
X97628136Y-79050795D01*
X97740919Y-79181702D01*
X97878048Y-79341959D01*
X98039604Y-79531659D01*
X98225668Y-79750896D01*
X98436321Y-79999766D01*
X98671642Y-80278362D01*
X98931711Y-80586779D01*
X99216610Y-80925111D01*
X99404077Y-81147950D01*
X99523086Y-81289218D01*
X99634404Y-81420889D01*
X99735519Y-81540024D01*
X99823916Y-81643685D01*
X99897084Y-81728932D01*
X99952510Y-81792826D01*
X99987680Y-81832429D01*
X100000000Y-81844884D01*
X100013780Y-81830284D01*
X100050829Y-81787963D01*
X100109278Y-81720120D01*
X100187259Y-81628953D01*
X100282904Y-81516662D01*
X100394346Y-81385443D01*
X100519716Y-81237497D01*
X100657145Y-81075022D01*
X100804766Y-80900215D01*
X100960710Y-80715275D01*
X101055077Y-80603235D01*
X101283475Y-80331927D01*
X101488002Y-80088972D01*
X101669984Y-79872858D01*
X101830746Y-79682068D01*
X101971615Y-79515088D01*
X102093915Y-79370403D01*
X102198973Y-79246500D01*
X102288114Y-79141863D01*
X102362665Y-79054977D01*
X102423950Y-78984328D01*
X102473295Y-78928402D01*
X102512026Y-78885683D01*
X102541470Y-78854658D01*
X102562951Y-78833811D01*
X102577795Y-78821628D01*
X102587328Y-78816595D01*
X102592877Y-78817196D01*
X102595765Y-78821917D01*
X102597320Y-78829243D01*
X102598866Y-78837661D01*
X102599217Y-78839066D01*
X102602068Y-78850723D01*
X102604774Y-78865050D01*
X102607502Y-78884707D01*
X102610417Y-78912355D01*
X102613685Y-78950656D01*
X102617473Y-79002270D01*
X102621947Y-79069860D01*
X102627271Y-79156087D01*
X102633613Y-79263611D01*
X102641138Y-79395095D01*
X102650012Y-79553199D01*
X102660401Y-79740584D01*
X102672471Y-79959913D01*
X102686389Y-80213845D01*
X102696650Y-80401384D01*
X102707689Y-80605020D01*
X102718044Y-80799560D01*
X102727517Y-80981013D01*
X102735906Y-81145385D01*
X102743014Y-81288684D01*
X102748639Y-81406917D01*
X102752582Y-81496091D01*
X102754645Y-81552215D01*
X102754908Y-81566518D01*
X102754923Y-81666805D01*
X103848687Y-81666805D01*
X103854854Y-81664165D01*
X103935342Y-81630333D01*
X103994660Y-81606223D01*
X104035721Y-81590620D01*
X104061442Y-81582307D01*
X104074734Y-81580070D01*
X104077901Y-81581080D01*
X104072408Y-81600081D01*
X104053856Y-81651170D01*
X104023889Y-81730231D01*
X103984149Y-81833148D01*
X103936280Y-81955803D01*
X103881924Y-82094079D01*
X103822724Y-82243859D01*
X103760323Y-82401026D01*
X103696365Y-82561463D01*
X103632491Y-82721054D01*
X103570346Y-82875681D01*
X103511571Y-83021228D01*
X103457810Y-83153576D01*
X103410706Y-83268610D01*
X103371902Y-83362213D01*
X103343040Y-83430267D01*
X103325763Y-83468655D01*
X103321901Y-83475529D01*
X103315592Y-83474741D01*
X103309491Y-83456601D01*
X103303318Y-83418024D01*
X103296796Y-83355925D01*
X103289644Y-83267218D01*
X103281585Y-83148818D01*
X103272339Y-82997640D01*
X103261629Y-82810599D01*
X103261294Y-82804615D01*
X103254499Y-82687102D01*
X103248103Y-82583795D01*
X103242514Y-82500708D01*
X103238138Y-82443853D01*
X103235383Y-82419243D01*
X103235169Y-82418730D01*
X103216501Y-82424121D01*
X103169274Y-82442422D01*
X103100671Y-82470742D01*
X103019740Y-82505382D01*
X102809123Y-82596921D01*
X102820802Y-82744729D01*
X102825187Y-82808855D01*
X102830781Y-82903755D01*
X102837141Y-83021160D01*
X102843823Y-83152804D01*
X102850385Y-83290417D01*
X102852287Y-83332154D01*
X102858589Y-83469032D01*
X102864940Y-83601605D01*
X102870936Y-83721832D01*
X102876172Y-83821671D01*
X102880246Y-83893083D01*
X102881237Y-83908610D01*
X102890380Y-84045451D01*
X102821149Y-84092889D01*
X102747407Y-84159448D01*
X102679446Y-84248865D01*
X102628831Y-84345352D01*
X102621253Y-84365723D01*
X102600349Y-84473013D01*
X102601334Y-84593967D01*
X102623157Y-84710614D01*
X102644836Y-84768975D01*
X102716665Y-84880568D01*
X102815603Y-84973774D01*
X102932958Y-85043009D01*
X103060039Y-85082687D01*
X103144354Y-85089977D01*
X103204627Y-85082961D01*
X103278434Y-85065879D01*
X103313557Y-85054951D01*
X103425439Y-85003331D01*
X103517235Y-84929468D01*
X103592036Y-84836615D01*
X103655473Y-84711607D01*
X103682627Y-84577549D01*
X103682314Y-84572814D01*
X103335932Y-84572814D01*
X103308989Y-84642088D01*
X103259453Y-84696320D01*
X103194975Y-84730996D01*
X103123206Y-84741602D01*
X103051796Y-84723624D01*
X103002293Y-84687887D01*
X102953996Y-84616136D01*
X102936311Y-84534616D01*
X102951810Y-84455688D01*
X102953330Y-84452393D01*
X102994501Y-84401062D01*
X103056845Y-84359969D01*
X103125288Y-84336859D01*
X103177381Y-84337236D01*
X103241795Y-84369879D01*
X103298310Y-84426023D01*
X103332033Y-84490720D01*
X103332631Y-84493009D01*
X103335932Y-84572814D01*
X103682314Y-84572814D01*
X103673500Y-84439902D01*
X103628091Y-84304124D01*
X103591945Y-84238900D01*
X103531955Y-84144305D01*
X103907519Y-83205806D01*
X104015999Y-82934839D01*
X104110970Y-82697924D01*
X104193376Y-82492810D01*
X104264159Y-82317244D01*
X104324263Y-82168973D01*
X104374631Y-82045744D01*
X104416207Y-81945304D01*
X104449933Y-81865401D01*
X104476754Y-81803782D01*
X104497612Y-81758193D01*
X104513450Y-81726382D01*
X104525212Y-81706097D01*
X104533841Y-81695084D01*
X104540280Y-81691090D01*
X104541804Y-81690923D01*
X104613882Y-81678687D01*
X104700349Y-81646242D01*
X104786974Y-81599983D01*
X104855271Y-81550104D01*
X104952326Y-81442729D01*
X105012906Y-81322443D01*
X105038286Y-81186429D01*
X105039246Y-81143846D01*
X105038831Y-81136309D01*
X104701564Y-81136309D01*
X104687625Y-81206390D01*
X104637001Y-81277028D01*
X104628682Y-81285555D01*
X104586947Y-81322015D01*
X104548117Y-81336551D01*
X104493275Y-81335372D01*
X104480956Y-81334051D01*
X104404078Y-81315231D01*
X104350004Y-81282226D01*
X104315905Y-81223242D01*
X104305025Y-81147705D01*
X104316889Y-81070133D01*
X104351021Y-81005048D01*
X104359382Y-80995891D01*
X104427557Y-80952216D01*
X104504438Y-80940982D01*
X104580218Y-80960218D01*
X104645090Y-81007950D01*
X104680280Y-81060407D01*
X104701564Y-81136309D01*
X105038831Y-81136309D01*
X105034961Y-81066092D01*
X105025186Y-80994765D01*
X105015014Y-80954634D01*
X104949413Y-80829497D01*
X104857021Y-80728631D01*
X104743591Y-80654685D01*
X104614878Y-80610303D01*
X104476637Y-80598131D01*
X104334622Y-80620816D01*
X104307514Y-80629344D01*
X104208911Y-80680143D01*
X104116031Y-80758508D01*
X104040031Y-80853310D01*
X103996692Y-80939457D01*
X103974371Y-81003617D01*
X103955942Y-81054170D01*
X103936965Y-81094519D01*
X103913003Y-81128065D01*
X103879619Y-81158212D01*
X103832375Y-81188363D01*
X103766834Y-81221921D01*
X103678557Y-81262288D01*
X103563108Y-81312868D01*
X103439325Y-81366857D01*
X103356875Y-81402447D01*
X103287679Y-81431342D01*
X103239471Y-81450377D01*
X103220403Y-81456461D01*
X103207719Y-81439462D01*
X103195968Y-81398026D01*
X103195042Y-81392961D01*
X103191860Y-81361330D01*
X103186915Y-81294769D01*
X103180435Y-81197373D01*
X103172647Y-81073240D01*
X103163779Y-80926464D01*
X103154059Y-80761142D01*
X103143715Y-80581369D01*
X103132974Y-80391243D01*
X103122064Y-80194858D01*
X103111212Y-79996311D01*
X103100647Y-79799698D01*
X103090597Y-79609114D01*
X103081287Y-79428656D01*
X103072948Y-79262421D01*
X103065805Y-79114502D01*
X103060088Y-78988998D01*
X103056284Y-78896923D01*
X103043981Y-78574538D01*
X103112639Y-78529248D01*
X103195016Y-78454775D01*
X103264445Y-78353892D01*
X103314691Y-78238685D01*
X103339517Y-78121241D01*
X103340816Y-78092319D01*
X102989385Y-78092319D01*
X102983897Y-78146781D01*
X102961727Y-78189022D01*
X102917869Y-78232744D01*
X102868091Y-78271563D01*
X102826558Y-78287252D01*
X102775724Y-78286033D01*
X102769814Y-78285270D01*
X102709930Y-78270097D01*
X102661890Y-78246100D01*
X102656450Y-78241678D01*
X102607602Y-78174677D01*
X102589888Y-78097848D01*
X102601762Y-78021164D01*
X102641679Y-77954600D01*
X102708091Y-77908130D01*
X102708149Y-77908106D01*
X102788682Y-77888455D01*
X102860272Y-77903814D01*
X102930575Y-77955899D01*
X102933273Y-77958574D01*
X102974748Y-78013279D01*
X102988993Y-78075679D01*
X102989385Y-78092319D01*
X103340816Y-78092319D01*
X103341077Y-78086518D01*
X103322772Y-77961623D01*
X103271782Y-77839477D01*
X103193998Y-77729078D01*
X103095307Y-77639427D01*
X103019437Y-77594989D01*
X102920417Y-77563796D01*
X102805167Y-77550080D01*
X102690977Y-77554685D01*
M02*
